if (_typeface_js && _typeface_js.loadFace) _typeface_js.loadFace({"glyphs":{"S":{"x_min":73.640625,"x_max":864,"ha":926,"o":"m 864 298 q 817 136 864 208 q 681 23 771 64 q 469 -17 591 -17 q 226 38 321 -17 q 116 145 158 78 q 73 275 73 212 q 99 337 73 311 q 164 364 124 364 q 218 343 196 364 q 256 283 240 323 q 297 204 275 235 q 359 151 319 172 q 464 131 399 131 q 609 172 553 131 q 665 276 665 214 q 634 356 665 326 q 557 404 604 387 q 429 438 509 420 q 250 497 322 463 q 135 588 177 530 q 93 733 93 646 q 137 878 93 815 q 267 976 182 942 q 466 1011 352 1011 q 625 988 558 1011 q 736 928 692 965 q 800 849 780 890 q 821 768 821 807 q 795 703 821 732 q 731 675 770 675 q 679 692 697 675 q 639 748 661 709 q 575 836 612 805 q 453 868 537 868 q 327 833 375 868 q 280 751 280 799 q 296 699 280 721 q 340 662 312 678 q 398 638 369 647 q 494 612 427 629 q 646 569 578 592 q 762 511 714 545 q 837 425 810 477 q 864 298 864 373 "},"¦":{"x_min":119,"x_max":270,"ha":389,"o":"m 270 151 l 270 -165 q 258 -258 270 -224 q 195 -292 246 -292 q 140 -268 162 -292 q 119 -199 119 -244 l 119 151 q 140 220 119 196 q 195 244 162 244 q 249 219 228 244 q 270 151 270 195 m 270 917 l 270 567 q 249 497 270 520 q 195 474 228 474 q 140 497 162 474 q 119 567 119 521 l 119 917 q 140 987 119 963 q 195 1011 162 1011 q 249 986 228 1011 q 270 917 270 962 "},"/":{"x_min":18,"x_max":372,"ha":390,"o":"m 357 873 l 167 91 q 151 30 158 52 q 129 -4 144 8 q 87 -17 114 -17 q 18 42 18 -17 q 31 120 18 58 l 220 902 q 249 987 235 964 q 302 1011 262 1011 q 354 994 336 1011 q 372 949 372 978 q 357 873 372 928 "},"y":{"x_min":14,"x_max":715,"ha":754,"o":"m 267 -40 l 284 0 l 56 575 q 35 647 35 624 q 47 691 35 670 q 80 723 59 711 q 125 736 102 736 q 185 710 165 736 q 221 637 206 685 l 378 181 l 527 605 q 558 686 544 657 q 589 725 573 715 q 634 736 605 736 q 674 724 655 736 q 704 694 693 713 q 715 654 715 675 q 706 617 712 641 q 691 569 700 594 l 449 -62 q 388 -193 418 -146 q 309 -266 358 -241 q 176 -292 260 -292 q 54 -274 95 -292 q 14 -210 14 -256 q 33 -161 14 -178 q 90 -143 52 -143 q 119 -147 105 -143 q 150 -152 137 -152 q 200 -142 182 -152 q 233 -109 218 -133 q 267 -40 248 -86 "},"Á":{"x_min":37,"x_max":959,"ha":998,"o":"m 744 112 l 696 238 l 292 238 l 245 110 q 197 9 217 35 q 133 -17 178 -17 q 66 10 95 -17 q 37 73 37 38 q 43 115 37 94 q 66 176 50 137 l 320 821 q 346 888 331 849 q 379 953 361 927 q 424 995 396 979 q 494 1011 452 1011 q 564 995 536 1011 q 609 954 592 979 q 638 900 627 929 q 669 823 650 871 l 928 182 q 959 75 959 108 q 930 11 959 40 q 860 -17 901 -17 q 820 -8 837 -17 q 791 14 803 0 q 766 59 780 29 q 744 112 753 89 m 345 389 l 642 389 l 492 798 l 345 389 m 517 1253 l 609 1253 q 644 1243 644 1253 q 606 1199 644 1238 q 529 1125 568 1160 q 475 1082 490 1090 q 393 1063 437 1063 q 364 1079 364 1063 q 381 1120 364 1091 l 412 1177 q 458 1240 438 1226 q 517 1253 477 1253 "},"g":{"x_min":54,"x_max":776,"ha":868,"o":"m 776 600 l 776 62 q 756 -96 776 -30 q 693 -206 736 -163 q 579 -270 649 -249 q 405 -292 509 -292 q 234 -265 309 -292 q 118 -195 159 -238 q 78 -108 78 -153 q 101 -53 78 -74 q 156 -32 124 -32 q 227 -67 197 -32 q 258 -104 242 -86 q 293 -136 274 -123 q 340 -156 313 -150 q 404 -163 368 -163 q 516 -142 476 -163 q 573 -86 556 -122 q 589 -9 589 -50 q 589 122 589 31 q 493 31 549 62 q 360 0 437 0 q 198 47 267 0 q 91 180 128 94 q 54 377 54 265 q 76 527 54 460 q 141 641 99 595 q 238 710 183 687 q 359 734 293 734 q 495 703 437 734 q 602 609 553 673 l 602 634 q 626 709 602 682 q 687 736 650 736 q 758 701 740 736 q 776 600 776 666 m 239 365 q 289 195 239 253 q 416 138 338 138 q 503 162 462 138 q 570 237 544 187 q 596 358 596 286 q 546 534 596 471 q 414 597 496 597 q 287 536 335 597 q 239 365 239 476 "},"²":{"x_min":39,"x_max":466,"ha":492,"o":"m 406 490 l 111 490 q 58 506 77 490 q 39 546 39 523 q 55 593 39 571 q 99 637 72 615 q 181 701 127 659 q 237 740 186 705 q 308 798 287 775 q 329 849 329 821 q 306 896 329 879 q 247 914 283 914 q 190 899 209 914 q 157 854 172 884 q 132 812 143 824 q 94 801 121 801 q 55 814 71 801 q 40 852 40 828 q 63 919 40 885 q 133 976 86 954 q 250 999 181 999 q 405 955 354 999 q 456 850 456 912 q 415 752 456 794 q 301 661 375 710 q 205 588 227 612 l 393 588 q 447 574 428 588 q 466 538 466 561 q 450 504 466 519 q 406 490 435 490 "},"–":{"x_min":-8,"x_max":703,"ha":695,"o":"m 703 289 l -8 289 l -8 414 l 703 414 l 703 289 "},"ë":{"x_min":61,"x_max":765,"ha":825,"o":"m 612 314 l 250 314 q 274 202 250 250 q 340 130 299 154 q 431 106 381 106 q 492 113 464 106 q 545 138 519 121 q 593 173 571 154 q 649 224 615 192 q 690 237 663 237 q 736 221 718 237 q 753 177 753 205 q 734 118 753 152 q 674 54 714 85 q 575 3 635 23 q 437 -17 515 -17 q 159 84 258 -17 q 61 360 61 186 q 85 512 61 442 q 156 633 109 583 q 271 710 203 683 q 423 737 340 737 q 610 691 532 737 q 726 572 687 645 q 765 425 765 500 q 724 334 765 355 q 612 314 684 314 m 250 419 l 583 419 q 538 560 583 513 q 419 608 493 608 q 304 560 349 608 q 250 419 259 512 m 253 827 q 200 847 223 827 q 177 903 177 867 q 199 958 177 937 q 253 980 221 980 q 306 960 283 980 q 330 903 330 941 q 306 847 330 867 q 253 827 283 827 m 517 980 q 555 969 536 980 q 583 941 573 959 q 594 903 594 922 q 571 847 594 867 q 517 827 549 827 q 464 847 487 827 q 441 903 441 867 q 464 956 441 933 q 517 980 487 980 "},"ƒ":{"x_min":-21,"x_max":803,"ha":825,"o":"m 298 528 l 333 528 l 372 742 q 398 859 386 817 q 437 936 411 900 q 511 991 464 972 q 633 1011 558 1011 q 757 990 711 1011 q 803 927 803 969 q 774 874 803 884 q 696 872 746 864 q 643 881 645 881 q 588 862 607 881 q 559 809 569 844 q 533 681 548 773 q 507 528 518 589 l 550 528 q 625 515 598 528 q 652 462 652 502 q 624 410 652 425 q 540 395 596 395 l 483 395 l 409 -30 q 384 -137 399 -91 q 341 -218 369 -184 q 267 -270 314 -251 q 151 -290 221 -290 q 25 -268 71 -290 q -21 -209 -21 -247 q -2 -164 -21 -181 q 48 -148 16 -148 q 83 -154 54 -148 q 130 -161 112 -161 q 204 -131 185 -161 q 236 -34 223 -102 l 309 395 l 283 395 q 206 408 233 395 q 179 456 179 422 q 209 512 179 497 q 298 528 240 528 "},"Î":{"x_min":-32,"x_max":421,"ha":435,"o":"m 117 105 l 117 888 q 144 980 117 949 q 216 1011 172 1011 q 289 980 261 1011 q 318 888 318 950 l 318 105 q 289 13 318 44 q 216 -17 261 -17 q 145 13 173 -17 q 117 105 117 44 m 262 1114 l 194 1193 l 127 1114 q 88 1073 98 1080 q 50 1066 78 1066 l -4 1066 q -32 1075 -32 1066 q -10 1109 -32 1082 l 64 1199 q 86 1225 74 1210 q 107 1247 98 1241 q 134 1257 116 1253 q 175 1261 152 1261 l 213 1261 q 274 1250 257 1261 q 323 1199 290 1239 l 401 1107 q 421 1077 421 1082 q 390 1066 421 1066 l 339 1066 q 306 1071 318 1066 q 284 1089 295 1077 q 262 1114 273 1101 "},"e":{"x_min":61,"x_max":765,"ha":825,"o":"m 612 314 l 250 314 q 274 202 250 250 q 340 130 299 154 q 431 106 382 106 q 492 113 465 106 q 546 138 520 121 q 593 173 571 154 q 649 224 615 192 q 690 237 664 237 q 736 221 718 237 q 753 177 753 205 q 734 118 753 152 q 674 54 714 85 q 575 3 635 23 q 437 -17 515 -17 q 159 84 258 -17 q 61 360 61 186 q 85 512 61 442 q 156 633 109 583 q 271 710 203 683 q 423 737 340 737 q 610 691 532 737 q 726 572 687 645 q 765 425 765 500 q 724 334 765 355 q 612 314 684 314 m 250 419 l 583 419 q 538 560 583 513 q 419 608 493 608 q 304 560 349 608 q 250 419 259 512 "},"Ã":{"x_min":37,"x_max":959,"ha":998,"o":"m 744 112 l 697 238 l 292 238 l 245 110 q 197 9 217 35 q 133 -17 178 -17 q 66 10 95 -17 q 37 73 37 38 q 43 115 37 94 q 66 176 50 137 l 320 821 q 346 888 331 849 q 379 953 361 927 q 424 995 396 979 q 494 1011 452 1011 q 564 995 536 1011 q 609 954 592 979 q 639 900 627 929 q 669 823 650 871 l 928 182 q 959 75 959 108 q 930 11 959 40 q 860 -17 901 -17 q 820 -8 837 -17 q 791 14 803 0 q 767 59 780 29 q 744 112 753 89 m 345 389 l 642 389 l 492 798 l 345 389 m 355 1141 q 308 1094 320 1141 q 271 1055 296 1055 q 244 1068 256 1055 q 233 1107 233 1082 q 247 1173 233 1141 q 289 1223 262 1204 q 346 1242 316 1242 q 403 1233 377 1242 q 473 1204 429 1224 q 533 1178 517 1184 q 569 1173 549 1173 q 600 1182 589 1173 q 617 1218 611 1192 q 654 1257 628 1257 q 681 1243 669 1257 q 693 1204 693 1229 q 664 1118 693 1166 q 574 1071 635 1071 q 527 1078 551 1071 q 460 1105 503 1086 q 396 1132 417 1124 q 355 1141 375 1141 "},"J":{"x_min":26.5625,"x_max":686,"ha":796,"o":"m 686 888 l 686 368 q 680 252 686 300 q 654 156 674 205 q 542 28 620 74 q 352 -17 464 -17 q 184 14 251 -17 q 75 117 116 46 q 40 205 53 155 q 26 299 26 254 q 53 371 26 346 q 120 397 79 397 q 181 373 160 397 q 212 302 201 350 q 235 218 223 250 q 274 165 246 187 q 351 143 301 143 q 485 338 485 143 l 485 888 q 511 980 485 949 q 584 1011 538 1011 q 658 980 631 1011 q 686 888 686 949 "},"»":{"x_min":119,"x_max":725,"ha":825,"o":"m 450 150 l 579 355 l 457 551 q 444 570 448 562 q 435 587 439 577 q 432 610 432 597 q 450 650 432 633 q 494 667 469 667 q 571 611 534 667 l 694 424 q 717 385 710 400 q 725 354 725 371 q 694 289 725 334 l 575 107 q 532 56 550 70 q 494 43 514 43 q 448 59 467 43 q 430 102 430 76 q 450 150 430 125 m 138 150 l 267 355 l 145 551 q 132 571 138 562 q 123 589 126 579 q 120 610 120 599 q 139 650 120 633 q 182 667 158 667 q 257 611 221 667 l 382 424 q 412 354 412 381 q 382 289 412 333 l 263 107 q 221 56 239 70 q 182 43 203 43 q 137 60 155 43 q 119 102 119 77 q 138 150 119 122 "},"©":{"x_min":-5,"x_max":1034,"ha":1029,"o":"m 750 614 l 638 588 q 518 683 602 683 q 415 632 452 683 q 379 499 379 582 q 394 388 379 433 q 440 320 410 343 q 512 298 470 298 q 640 414 606 298 l 750 377 q 510 201 695 201 q 386 233 443 201 q 294 332 329 266 q 260 491 260 399 q 291 642 260 577 q 383 743 323 707 q 522 779 442 779 q 750 614 690 779 m 514 1011 q 715 971 620 1011 q 882 859 810 931 q 994 692 954 787 q 1034 491 1034 597 q 963 231 1034 351 q 774 42 893 112 q 514 -27 654 -27 q 253 42 372 -27 q 64 231 134 111 q -5 491 -5 350 q 64 752 -5 632 q 253 941 134 871 q 514 1011 373 1011 m 514 909 q 304 852 399 909 q 152 700 208 796 q 97 491 97 604 q 152 282 97 377 q 304 130 208 186 q 514 75 400 75 q 723 130 627 75 q 876 281 820 186 q 932 491 932 376 q 875 700 932 603 q 723 852 819 796 q 514 909 627 909 "},"˘":{"x_min":20,"x_max":443,"ha":463,"o":"m 233 910 q 317 935 283 910 q 360 1006 352 961 q 401 1050 370 1050 q 431 1036 419 1050 q 443 1004 443 1023 q 417 917 443 961 q 343 846 391 874 q 234 818 295 818 q 81 877 143 818 q 20 1004 20 936 q 32 1035 20 1021 q 61 1050 44 1050 q 103 1003 90 1050 q 148 935 114 960 q 233 910 183 910 "},"ò":{"x_min":52,"x_max":789,"ha":839,"o":"m 789 359 q 763 206 789 276 q 688 86 737 137 q 572 9 639 36 q 419 -17 504 -17 q 268 10 335 -17 q 152 87 201 37 q 77 207 102 138 q 52 359 52 276 q 77 513 52 443 q 151 632 103 583 q 268 709 199 682 q 419 736 336 736 q 572 708 503 736 q 689 631 640 681 q 763 512 738 581 q 789 359 789 442 m 603 359 q 553 535 603 472 q 419 598 503 598 q 323 570 365 598 q 260 487 282 542 q 237 359 237 432 q 259 232 237 287 q 322 149 281 178 q 419 121 363 121 q 553 184 503 121 q 603 359 603 247 m 442 925 l 472 868 q 491 827 491 838 q 461 811 491 811 q 378 830 417 811 q 284 911 359 840 q 210 991 210 982 q 244 1001 210 1001 l 336 1001 q 396 987 376 1001 q 442 925 417 973 "},"^":{"x_min":77.984375,"x_max":731.75,"ha":810,"o":"m 271 469 l 77 469 l 333 1011 l 483 1011 l 731 469 l 540 469 l 405 801 l 271 469 "},"«":{"x_min":100,"x_max":706,"ha":826,"o":"m 368 551 l 245 355 l 375 150 q 394 102 394 124 q 375 60 394 77 q 330 43 357 43 q 293 56 310 43 q 250 107 275 70 l 129 289 q 100 354 100 333 q 129 424 100 378 l 254 611 q 328 667 291 667 q 373 650 354 667 q 392 610 392 633 q 384 578 392 591 q 368 551 376 564 m 678 551 l 556 355 l 686 150 q 706 102 706 119 q 687 60 706 77 q 641 43 669 43 q 603 56 620 43 q 560 107 586 70 l 441 289 q 411 354 411 338 q 441 424 411 376 l 565 611 q 641 667 600 667 q 685 650 666 667 q 704 610 704 633 q 700 587 704 597 q 693 573 697 578 q 678 551 689 567 "},"D":{"x_min":110,"x_max":960,"ha":1029,"o":"m 233 994 l 496 994 q 671 975 598 994 q 804 904 745 956 q 960 499 960 771 q 944 336 960 410 q 896 203 928 262 q 812 96 863 143 q 725 39 772 61 q 623 8 677 17 q 500 0 568 0 l 237 0 q 154 16 182 0 q 118 63 126 33 q 110 141 110 93 l 110 870 q 139 964 110 935 q 233 994 168 994 m 311 835 l 311 160 l 463 160 q 542 162 514 160 q 601 176 571 165 q 654 206 632 187 q 756 501 756 292 q 711 721 756 648 q 601 814 667 794 q 444 835 536 835 l 311 835 "},"ÿ":{"x_min":14,"x_max":715,"ha":754,"o":"m 266 -40 l 283 0 l 55 575 q 35 647 35 624 q 47 691 35 670 q 80 723 59 711 q 125 736 102 736 q 185 710 165 736 q 221 637 205 685 l 377 181 l 526 605 q 558 686 544 657 q 588 725 572 715 q 634 736 604 736 q 674 724 655 736 q 704 694 693 713 q 715 654 715 675 q 706 617 712 641 q 691 569 700 594 l 449 -62 q 388 -193 418 -146 q 309 -266 358 -241 q 176 -292 260 -292 q 54 -274 95 -292 q 14 -210 14 -256 q 33 -161 14 -178 q 90 -143 52 -143 q 119 -147 105 -143 q 150 -152 137 -152 q 200 -142 181 -152 q 233 -109 218 -133 q 266 -40 247 -86 m 215 826 q 162 846 185 826 q 139 902 139 866 q 161 957 139 936 q 215 979 183 979 q 268 959 245 979 q 292 902 292 940 q 268 846 292 866 q 215 826 245 826 m 479 979 q 517 968 498 979 q 545 940 535 958 q 556 902 556 921 q 533 846 556 866 q 479 826 511 826 q 426 846 449 826 q 403 902 403 866 q 426 955 403 932 q 479 979 449 979 "},"í":{"x_min":95,"x_max":375,"ha":376,"o":"m 281 630 l 281 95 q 254 11 281 39 q 187 -17 228 -17 q 121 12 146 -17 q 96 95 96 41 l 96 625 q 121 708 96 680 q 187 736 146 736 q 254 708 228 736 q 281 630 281 680 m 249 1001 l 340 1001 q 375 991 375 1001 q 337 947 375 986 q 260 873 299 908 q 206 830 221 838 q 124 811 168 811 q 95 827 95 811 q 112 868 95 839 l 143 925 q 189 988 169 974 q 249 1001 209 1001 "},"ˆ":{"x_min":5,"x_max":458,"ha":462,"o":"m 299 862 l 231 942 l 163 862 q 125 821 135 828 q 87 814 114 814 l 32 814 q 5 823 5 814 q 26 857 5 830 l 101 947 q 123 974 110 959 q 144 996 135 989 q 171 1006 153 1002 q 211 1010 188 1010 l 249 1010 q 311 999 294 1010 q 360 947 327 988 l 438 856 q 458 825 458 830 q 427 814 458 814 l 375 814 q 343 819 355 814 q 321 837 331 825 q 299 862 310 849 "},"w":{"x_min":32,"x_max":1097,"ha":1129,"o":"m 210 620 l 331 206 l 441 591 q 467 673 459 651 q 499 715 476 695 q 563 736 522 736 q 628 715 604 736 q 661 672 651 695 q 687 591 670 649 l 797 206 l 919 620 q 939 685 931 665 q 964 720 946 705 q 1014 736 981 736 q 1072 712 1048 736 q 1097 658 1097 689 q 1075 572 1097 630 l 924 128 q 894 47 905 72 q 860 2 883 22 q 796 -17 836 -17 q 729 4 753 -17 q 694 55 705 25 q 669 134 682 86 l 563 495 l 461 134 q 417 21 440 59 q 333 -17 393 -17 q 281 -5 303 -17 q 246 28 260 6 q 221 81 231 50 q 204 128 210 111 l 54 572 q 32 658 32 634 q 55 712 32 688 q 114 736 79 736 q 176 709 160 736 q 210 620 192 683 "},"$":{"x_min":52.640625,"x_max":765,"ha":825,"o":"m 454 1080 l 454 1007 q 578 977 526 999 q 668 909 630 955 q 716 838 699 875 q 732 771 732 801 q 707 712 732 737 q 647 688 683 688 q 561 759 581 688 q 454 872 539 844 l 454 590 q 587 548 538 567 q 677 493 637 529 q 742 403 719 455 q 765 290 765 352 q 728 145 765 213 q 621 35 692 78 q 454 -15 550 -7 l 454 -184 q 446 -242 454 -224 q 412 -261 438 -261 q 377 -246 387 -261 q 368 -199 368 -231 l 368 -16 q 229 20 288 -8 q 130 91 169 48 q 71 179 90 133 q 52 269 52 225 q 78 327 52 301 q 141 354 103 354 q 192 339 171 354 q 221 299 213 325 q 253 214 240 244 q 294 160 267 185 q 368 123 322 136 l 368 438 q 215 494 276 463 q 116 582 154 525 q 79 729 79 639 q 153 920 79 845 q 368 1007 227 995 l 368 1079 q 410 1136 368 1136 q 454 1080 454 1136 m 368 615 l 368 875 q 278 830 310 858 q 247 746 247 802 q 276 665 247 692 q 368 615 306 637 m 454 413 l 454 116 q 559 171 522 130 q 597 267 597 212 q 560 359 597 326 q 454 413 524 391 "},"\\":{"x_min":18,"x_max":372,"ha":390,"o":"m 167 902 l 357 120 q 372 42 372 65 q 302 -17 372 -17 q 259 -4 273 -17 q 238 26 244 8 q 220 91 232 44 l 31 873 q 18 949 18 931 q 35 994 18 978 q 87 1011 53 1011 q 140 987 127 1011 q 167 902 152 964 "},"Ì":{"x_min":18,"x_max":317,"ha":434,"o":"m 116 105 l 116 888 q 143 980 116 949 q 215 1011 171 1011 q 288 980 260 1011 q 317 888 317 950 l 317 105 q 288 13 317 44 q 215 -17 260 -17 q 144 13 172 -17 q 116 105 116 44 m 249 1176 l 279 1119 q 298 1079 298 1090 q 268 1063 298 1063 q 185 1082 224 1063 q 92 1163 166 1092 q 18 1243 18 1234 q 52 1253 18 1253 l 143 1253 q 203 1238 183 1253 q 249 1176 224 1224 "},"µ":{"x_min":103,"x_max":758,"ha":854,"o":"m 580 0 l 580 87 q 513 7 551 33 q 435 -19 475 -19 q 349 9 380 -19 q 292 87 318 37 l 292 -277 l 103 -277 l 103 719 l 292 719 l 292 394 q 302 252 292 352 q 343 171 308 207 q 426 136 377 136 q 527 189 490 136 q 565 349 565 242 l 565 720 l 758 720 l 758 0 l 580 0 "},"Ç":{"x_min":69,"x_max":955,"ha":1028,"o":"m 550 -17 l 546 -32 q 652 -72 615 -44 q 690 -151 690 -100 q 664 -222 690 -191 q 586 -271 638 -253 q 462 -289 534 -289 q 394 -285 426 -289 q 328 -271 363 -281 q 319 -260 324 -269 q 314 -243 314 -251 q 330 -214 314 -222 q 377 -207 347 -207 q 394 -207 388 -207 q 410 -207 400 -207 q 433 -208 421 -207 q 453 -210 445 -210 q 563 -151 563 -210 q 543 -113 563 -128 q 492 -99 524 -99 q 456 -103 479 -99 q 428 -107 433 -107 q 406 -96 416 -107 q 397 -70 397 -85 q 508 -17 397 -28 q 409 -3 459 -13 q 317 27 359 7 q 239 78 276 46 q 148 185 188 122 q 89 327 109 249 q 69 495 69 405 q 103 710 69 615 q 204 872 138 805 q 356 975 269 940 q 543 1011 444 1011 q 758 962 663 1011 q 902 843 852 914 q 953 709 953 772 q 928 648 953 674 q 869 622 904 622 q 818 635 838 622 q 780 680 798 649 q 727 766 753 730 q 655 826 700 802 q 544 851 611 851 q 346 756 420 851 q 273 488 273 662 q 305 295 273 372 q 397 179 338 217 q 537 141 456 141 q 693 192 629 141 q 774 312 757 243 q 867 401 798 401 q 929 375 903 401 q 955 313 955 350 q 937 228 955 275 q 885 134 919 180 q 802 53 850 88 q 550 -17 704 -17 "},"’":{"x_min":111.484375,"x_max":334,"ha":435,"o":"m 220 805 l 211 805 q 142 835 173 805 q 111 909 111 866 q 142 981 111 952 q 218 1011 173 1011 q 277 993 249 1011 q 319 940 304 975 q 334 856 334 906 q 305 730 334 789 q 235 637 276 672 q 161 603 194 603 q 127 616 140 603 q 114 648 114 629 q 141 693 114 679 q 199 739 178 714 q 220 805 220 764 "},"-":{"x_min":25,"x_max":439,"ha":463,"o":"m 339 279 l 124 279 q 50 301 75 279 q 25 360 25 324 q 49 419 25 396 q 124 442 74 442 l 339 442 q 414 419 389 442 q 439 360 439 396 q 414 301 439 324 q 339 279 390 279 "},"Q":{"x_min":62,"x_max":1090,"ha":1099,"o":"m 907 123 q 1004 65 951 93 q 1073 20 1056 37 q 1090 -26 1090 3 q 1070 -70 1090 -48 q 1021 -92 1050 -92 q 965 -77 998 -92 q 888 -33 932 -62 q 791 33 844 -4 q 549 -17 692 -17 q 341 19 433 -17 q 187 126 249 56 q 93 291 125 195 q 62 499 62 387 q 94 709 62 614 q 190 872 127 805 q 342 975 252 939 q 545 1011 431 1011 q 811 948 700 1011 q 979 769 922 885 q 1036 498 1036 654 q 907 123 1036 261 m 749 233 q 812 347 792 281 q 832 499 832 412 q 796 688 832 608 q 695 809 761 768 q 545 851 630 851 q 433 828 485 851 q 345 762 382 805 q 287 651 308 718 q 266 499 266 583 q 346 235 266 328 q 548 143 426 143 q 651 164 598 143 q 571 211 619 187 q 506 248 524 235 q 488 284 488 261 q 505 320 488 305 q 543 336 522 336 q 749 233 604 336 "},"M":{"x_min":100,"x_max":1059,"ha":1157,"o":"m 444 149 l 285 783 l 285 96 q 259 11 285 39 q 192 -17 234 -17 q 125 11 151 -17 q 100 96 100 39 l 100 883 q 133 971 100 948 q 225 994 167 994 l 287 994 q 369 983 344 994 q 407 947 394 973 q 434 861 419 920 l 579 316 l 724 861 q 751 947 739 920 q 789 983 764 973 q 871 994 814 994 l 933 994 q 1025 971 991 994 q 1059 883 1059 948 l 1059 96 q 1033 11 1059 39 q 965 -17 1008 -17 q 899 11 925 -17 q 874 96 874 39 l 874 783 l 714 149 q 689 59 698 88 q 652 6 679 30 q 579 -17 626 -17 q 519 -1 544 -17 q 481 37 495 13 q 460 89 468 60 q 444 149 452 118 "},"C":{"x_min":69,"x_max":955,"ha":1028,"o":"m 955 314 q 931 211 955 266 q 858 102 908 156 q 729 16 807 49 q 548 -17 651 -17 q 405 -2 469 -17 q 288 44 340 12 q 191 127 235 75 q 124 232 152 174 q 82 355 96 290 q 69 495 69 421 q 103 710 69 615 q 204 873 138 805 q 356 975 269 940 q 543 1011 444 1011 q 758 962 663 1011 q 902 844 852 914 q 953 710 953 773 q 928 649 953 675 q 869 623 904 623 q 811 641 830 623 q 768 704 792 659 q 675 814 729 777 q 544 851 622 851 q 346 756 420 851 q 273 488 273 662 q 305 295 273 372 q 397 180 338 218 q 537 143 457 143 q 684 186 624 143 q 775 312 744 229 q 807 377 788 352 q 867 402 825 402 q 929 376 903 402 q 955 314 955 351 "},"!":{"x_min":129,"x_max":334,"ha":463,"o":"m 143 430 l 143 755 q 143 891 143 850 q 170 979 143 947 q 242 1011 198 1011 q 315 970 297 1011 q 334 854 334 930 q 329 763 334 809 l 297 429 q 279 337 297 369 q 222 306 262 306 q 165 336 181 306 q 143 430 149 367 m 232 -16 q 159 10 190 -16 q 129 85 129 37 q 158 157 129 127 q 230 187 188 187 q 303 157 273 187 q 334 85 334 127 q 303 11 334 38 q 232 -16 272 -16 "},"ç":{"x_min":60,"x_max":759.859375,"ha":826,"o":"m 444 -15 l 442 -30 q 549 -66 514 -36 q 584 -144 584 -96 q 557 -214 584 -184 q 480 -261 531 -244 q 357 -278 429 -278 q 232 -230 232 -278 q 241 -208 232 -217 q 264 -198 251 -198 q 294 -201 266 -198 q 343 -204 321 -204 q 466 -145 466 -204 q 447 -110 466 -124 q 400 -95 428 -95 q 369 -98 389 -95 q 339 -101 349 -101 q 312 -89 322 -101 q 303 -62 303 -76 q 399 -11 303 -29 q 147 88 234 -11 q 60 350 60 188 q 104 552 60 464 q 231 688 148 640 q 430 737 314 737 q 562 716 502 737 q 664 661 622 695 q 727 591 705 628 q 750 521 750 553 q 725 465 750 488 q 665 442 700 442 q 604 476 629 442 q 527 566 562 537 q 428 595 492 595 q 296 530 346 595 q 245 355 245 466 q 258 259 245 303 q 296 184 271 215 q 355 137 320 153 q 431 122 389 122 q 523 144 489 122 q 586 212 556 166 q 633 275 617 257 q 681 293 649 293 q 737 267 714 293 q 759 211 759 242 q 723 113 759 165 q 615 22 687 60 q 444 -15 543 -15 "},"È":{"x_min":108,"x_max":873.921875,"ha":925,"o":"m 762 839 l 309 839 l 309 595 l 726 595 q 795 574 772 595 q 818 519 818 553 q 795 464 818 485 q 726 443 773 443 l 309 443 l 309 160 l 778 160 q 849 137 825 160 q 873 79 873 115 q 849 22 873 44 q 778 0 825 0 l 231 0 q 136 29 165 0 q 108 123 108 58 l 108 870 q 120 941 108 913 q 161 981 133 968 q 231 994 188 994 l 762 994 q 834 972 810 994 q 857 916 857 951 q 834 860 857 881 q 762 839 810 839 m 519 1176 l 549 1119 q 568 1079 568 1090 q 538 1063 568 1063 q 455 1082 494 1063 q 361 1163 436 1092 q 287 1242 287 1234 q 321 1253 287 1253 l 413 1253 q 473 1238 453 1253 q 519 1176 493 1224 "},"{":{"x_min":40,"x_max":504.046875,"ha":535,"o":"m 238 359 q 314 292 287 329 q 352 198 341 255 q 363 51 363 140 q 366 -47 363 -15 q 378 -96 369 -79 q 400 -118 387 -112 q 444 -127 413 -123 q 487 -152 470 -131 q 504 -209 504 -174 q 403 -292 504 -292 q 291 -266 340 -292 q 215 -193 242 -240 q 189 -85 189 -146 q 189 80 189 17 q 184 161 189 142 q 152 229 173 206 q 99 272 131 252 q 53 308 67 292 q 40 359 40 324 q 79 434 40 409 q 150 486 128 464 q 181 541 172 507 q 190 614 190 574 q 190 805 190 654 q 248 955 190 899 q 403 1011 306 1011 q 504 930 504 1011 q 487 872 504 893 q 444 848 470 851 q 388 831 405 842 q 367 789 372 821 q 363 669 363 758 q 353 525 363 581 q 317 430 344 469 q 238 359 290 391 "},"X":{"x_min":22,"x_max":809,"ha":838,"o":"m 71 193 l 294 518 l 106 806 q 67 879 80 848 q 54 937 54 909 q 79 988 54 965 q 141 1011 104 1011 q 207 986 183 1011 q 271 894 230 961 l 421 652 l 580 894 q 614 946 600 924 q 640 982 628 968 q 669 1003 653 996 q 706 1011 685 1011 q 768 988 744 1011 q 793 934 793 965 q 740 810 793 888 l 544 518 l 755 193 q 796 122 784 150 q 809 69 809 94 q 797 25 809 45 q 765 -5 786 6 q 717 -17 744 -17 q 669 -5 689 -17 q 638 24 650 6 q 592 92 626 42 l 417 368 l 231 84 q 200 37 210 50 q 178 10 191 23 q 148 -9 165 -2 q 106 -17 130 -17 q 46 5 70 -17 q 22 70 22 27 q 71 193 22 120 "},"ô":{"x_min":52,"x_max":789,"ha":839,"o":"m 789 359 q 763 206 789 276 q 688 86 737 137 q 572 9 639 36 q 419 -17 504 -17 q 268 10 335 -17 q 152 87 201 37 q 77 207 102 138 q 52 359 52 276 q 77 513 52 443 q 151 632 103 583 q 268 709 199 682 q 419 736 336 736 q 572 708 503 736 q 689 631 640 681 q 763 512 738 581 q 789 359 789 442 m 603 359 q 553 535 603 472 q 419 598 503 598 q 323 570 365 598 q 260 487 282 542 q 237 359 237 432 q 259 232 237 287 q 322 149 281 178 q 419 121 363 121 q 553 184 503 121 q 603 359 603 247 m 454 862 l 386 942 l 318 862 q 279 821 290 828 q 241 814 269 814 l 187 814 q 160 823 160 814 q 180 857 160 830 l 256 947 q 277 974 265 959 q 299 996 290 989 q 325 1006 308 1002 q 366 1010 343 1010 l 404 1010 q 465 999 449 1010 q 515 947 482 988 l 593 856 q 613 825 613 830 q 582 814 613 814 l 530 814 q 498 819 510 814 q 475 837 486 825 q 454 862 464 849 "},"¼":{"x_min":45.953125,"x_max":1178,"ha":1186,"o":"m 225 546 l 225 832 q 96 774 130 774 q 61 787 76 774 q 45 819 45 800 q 108 873 45 854 q 180 909 152 888 q 230 956 208 929 q 263 991 252 982 q 295 1001 274 1001 q 335 984 320 1001 q 351 939 351 967 l 351 560 q 287 483 351 483 q 242 499 260 483 q 225 546 225 516 m 975 51 l 975 105 l 782 105 q 720 122 741 105 q 699 167 699 139 q 708 196 699 183 q 737 229 718 209 l 950 466 q 986 501 971 489 q 1021 513 1002 513 q 1073 495 1055 513 q 1092 445 1092 478 l 1092 198 l 1119 198 q 1162 184 1146 198 q 1178 150 1178 170 q 1108 105 1178 105 l 1092 105 l 1092 51 q 1075 6 1092 21 q 1033 -8 1058 -8 q 991 6 1008 -8 q 975 51 975 21 m 832 198 l 975 198 l 975 358 l 832 198 m 919 911 l 353 0 q 305 -36 332 -36 q 273 -24 289 -36 q 258 5 258 -13 q 271 40 258 19 l 841 958 q 853 977 848 968 q 865 994 859 987 q 879 1005 871 1001 q 900 1009 888 1009 q 933 997 921 1009 q 945 965 945 984 q 919 911 945 953 "},"#":{"x_min":11,"x_max":756,"ha":767,"o":"m 79 120 l 104 248 q 11 321 11 248 q 34 377 11 355 q 102 399 57 399 l 134 399 l 173 596 l 102 596 q 34 618 58 596 q 11 671 11 640 q 34 726 11 705 q 102 747 57 747 l 203 747 l 235 902 q 252 964 243 941 q 277 997 261 986 q 319 1009 293 1009 q 374 990 355 1009 q 394 941 394 971 q 381 873 394 934 l 356 747 l 505 747 l 538 902 q 550 959 544 937 q 572 996 557 981 q 619 1011 588 1011 q 673 992 654 1011 q 693 943 693 974 q 691 915 693 928 q 686 889 689 901 q 683 873 684 876 l 658 745 q 756 671 756 745 q 732 616 756 637 q 663 596 709 596 l 629 596 l 588 399 l 663 399 q 732 377 709 399 q 756 322 756 355 q 733 268 756 289 q 663 248 710 248 l 559 248 l 527 91 q 514 33 520 54 q 492 -1 508 13 q 445 -17 476 -17 q 391 2 411 -17 q 372 51 372 21 q 381 120 372 79 l 407 248 l 256 248 l 224 91 q 199 8 212 33 q 142 -17 186 -17 q 88 2 108 -17 q 69 51 69 21 q 72 86 69 67 q 79 120 76 105 m 476 596 l 325 596 l 285 399 l 437 399 l 476 596 "},"Ê":{"x_min":108,"x_max":873.921875,"ha":925,"o":"m 762 839 l 309 839 l 309 595 l 727 595 q 795 574 773 595 q 818 519 818 553 q 796 464 818 485 q 727 443 773 443 l 309 443 l 309 160 l 778 160 q 849 137 825 160 q 873 79 873 115 q 849 22 873 44 q 778 0 825 0 l 231 0 q 136 29 165 0 q 108 123 108 58 l 108 870 q 120 941 108 913 q 161 981 133 968 q 231 994 188 994 l 762 994 q 834 972 810 994 q 857 916 857 951 q 834 860 857 881 q 762 839 810 839 m 531 1114 l 463 1193 l 395 1114 q 356 1073 366 1080 q 318 1066 346 1066 l 264 1066 q 237 1075 237 1066 q 257 1109 237 1082 l 332 1199 q 354 1225 342 1210 q 375 1247 366 1241 q 402 1257 385 1253 q 443 1261 420 1261 l 481 1261 q 542 1250 526 1261 q 592 1199 559 1239 l 670 1107 q 690 1077 690 1082 q 659 1066 690 1066 l 607 1066 q 575 1071 587 1066 q 552 1089 563 1077 q 531 1114 541 1101 "},")":{"x_min":68,"x_max":406,"ha":492,"o":"m 406 359 q 366 81 406 209 q 245 -179 326 -46 q 173 -273 200 -254 q 101 -292 147 -292 q 68 -273 68 -292 q 96 -208 68 -267 q 155 -66 124 -148 q 209 126 186 15 q 232 359 232 237 q 208 593 232 481 q 155 785 185 704 q 96 927 124 867 q 68 992 68 987 q 101 1011 68 1011 q 175 993 149 1011 q 245 899 201 975 q 315 768 285 833 q 365 639 345 704 q 395 505 385 575 q 406 359 406 435 "},"Å":{"x_min":37,"x_max":959,"ha":998,"o":"m 743 112 l 696 238 l 292 238 l 245 110 q 197 9 217 35 q 133 -17 178 -17 q 66 10 95 -17 q 37 73 37 38 q 43 115 37 94 q 66 176 50 137 l 320 821 q 346 888 331 849 q 378 953 361 927 q 424 995 396 979 q 493 1011 452 1011 q 563 995 535 1011 q 609 954 591 979 q 638 900 626 929 q 668 823 650 871 l 928 182 q 959 75 959 108 q 930 11 959 40 q 860 -17 901 -17 q 819 -8 836 -17 q 791 14 802 0 q 766 59 779 29 q 743 112 753 89 m 345 389 l 642 389 l 492 798 l 345 389 m 462 1314 q 560 1272 519 1314 q 602 1174 602 1231 q 560 1075 602 1116 q 462 1034 519 1034 q 391 1052 423 1034 q 340 1103 359 1071 q 322 1174 322 1135 q 363 1272 322 1231 q 462 1314 404 1314 m 462 1243 q 412 1223 432 1243 q 393 1174 393 1203 q 412 1126 393 1145 q 462 1107 432 1107 q 496 1115 480 1107 q 521 1139 512 1124 q 531 1174 531 1155 q 525 1201 531 1188 q 511 1223 520 1214 q 489 1237 502 1232 q 462 1243 476 1243 "},"ø":{"x_min":39,"x_max":801,"ha":840,"o":"m 757 628 l 722 592 q 789 359 789 491 q 763 207 789 276 q 689 87 738 138 q 571 9 639 36 q 419 -17 503 -17 q 291 2 352 -17 q 183 57 229 22 l 158 31 q 114 -9 128 2 q 86 -22 100 -22 q 52 -9 66 -22 q 39 21 39 3 q 49 56 39 41 q 86 98 59 71 l 117 129 q 52 359 52 228 q 77 513 52 443 q 151 632 103 583 q 268 709 199 682 q 419 736 336 736 q 548 717 488 736 q 656 664 609 699 l 689 698 q 725 730 711 720 q 757 741 739 741 q 787 728 774 741 q 801 694 801 715 q 790 663 801 677 q 757 628 779 649 m 588 461 l 298 171 q 419 121 346 121 q 553 184 503 121 q 603 359 603 247 q 588 461 603 413 m 250 261 l 540 550 q 419 598 492 598 q 323 570 365 598 q 260 487 282 542 q 237 359 237 432 q 250 261 237 308 "},"â":{"x_min":56,"x_max":767,"ha":826,"o":"m 564 87 q 434 9 497 35 q 293 -17 371 -17 q 168 11 222 -17 q 85 87 114 39 q 56 191 56 135 q 104 321 56 267 q 236 393 152 374 q 323 411 254 397 q 443 437 393 425 q 549 466 492 449 q 523 573 549 539 q 414 608 497 608 q 308 588 343 608 q 246 529 272 568 q 211 477 221 490 q 166 465 200 465 q 112 485 134 465 q 89 536 89 505 q 124 631 89 585 q 231 707 158 677 q 413 737 304 737 q 605 708 535 737 q 704 616 675 679 q 733 451 733 554 q 733 340 733 386 q 733 239 733 295 q 750 130 733 187 q 767 58 767 74 q 740 6 767 29 q 679 -17 713 -17 q 623 9 651 -17 q 564 87 595 36 m 552 355 q 433 323 511 340 q 325 299 355 306 q 268 268 296 291 q 241 205 241 245 q 273 133 241 163 q 357 104 305 104 q 458 128 412 104 q 526 190 505 152 q 552 328 552 232 l 552 355 m 454 862 l 386 941 l 318 862 q 279 821 290 828 q 241 814 269 814 l 187 814 q 160 823 160 814 q 180 857 160 830 l 256 947 q 277 974 265 958 q 299 995 290 989 q 325 1005 308 1002 q 366 1009 343 1009 l 404 1009 q 466 998 449 1009 q 515 947 482 988 l 593 855 q 613 825 613 830 q 582 814 613 814 l 530 814 q 498 819 510 814 q 475 837 486 825 q 454 862 465 849 "},"}":{"x_min":31,"x_max":495,"ha":535,"o":"m 296 359 q 235 407 259 382 q 196 468 212 432 q 175 553 181 504 q 169 669 169 602 q 169 767 169 733 q 160 817 169 802 q 136 839 151 833 q 90 848 120 844 q 48 872 65 851 q 31 930 31 893 q 129 1011 31 1011 q 241 985 193 1011 q 317 912 289 960 q 345 805 345 865 q 350 557 345 580 q 384 489 362 513 q 435 448 406 466 q 480 412 465 430 q 495 359 495 395 q 456 284 495 308 q 385 233 408 255 q 354 178 363 211 q 345 79 345 145 q 345 -85 345 13 q 286 -235 345 -178 q 130 -292 227 -292 q 56 -270 82 -292 q 31 -209 31 -249 q 39 -168 31 -187 q 60 -140 47 -150 q 90 -127 73 -129 q 137 -117 121 -123 q 160 -94 152 -111 q 169 -44 169 -77 q 169 51 169 -11 q 178 197 169 144 q 215 288 188 250 q 296 359 243 326 "},"‰":{"x_min":33,"x_max":1646,"ha":1678,"o":"m 458 738 q 401 546 458 609 q 245 483 344 483 q 135 509 184 483 q 60 593 87 536 q 33 732 33 650 q 54 879 33 820 q 122 969 75 938 q 242 1000 169 1000 q 335 983 295 1000 q 403 933 375 967 q 444 852 430 900 q 458 738 458 803 m 331 745 q 312 874 331 834 q 245 915 293 915 q 193 895 212 915 q 167 838 174 876 q 160 742 160 801 q 167 644 160 682 q 193 587 174 606 q 245 568 212 568 q 313 610 295 568 q 331 745 331 653 m 1153 248 q 1095 56 1153 119 q 939 -7 1038 -7 q 829 20 878 -7 q 753 103 780 47 q 726 242 726 160 q 776 442 726 375 q 937 509 827 509 q 1029 492 990 509 q 1097 443 1069 476 q 1139 362 1125 411 q 1153 248 1153 314 m 1026 255 q 1006 383 1026 343 q 939 424 987 424 q 886 405 905 424 q 859 349 867 386 q 852 253 852 312 q 871 120 852 162 q 939 78 890 78 q 1007 121 989 78 q 1026 255 1026 164 m 910 910 l 345 0 q 296 -37 323 -37 q 265 -25 281 -37 q 250 5 250 -14 q 263 39 250 19 l 831 957 q 857 995 846 983 q 890 1008 869 1008 q 923 996 910 1008 q 936 964 936 984 q 910 910 936 950 m 1646 248 q 1619 105 1646 162 q 1544 20 1593 47 q 1431 -7 1495 -7 q 1322 20 1371 -7 q 1246 104 1273 47 q 1219 242 1219 160 q 1268 441 1219 374 q 1428 509 1318 509 q 1590 443 1534 509 q 1646 248 1646 377 m 1520 255 q 1500 383 1520 343 q 1431 424 1481 424 q 1379 405 1398 424 q 1353 348 1360 386 q 1346 253 1346 310 q 1353 155 1346 194 q 1379 97 1360 117 q 1431 78 1399 78 q 1501 121 1482 78 q 1520 255 1520 164 "},"Ä":{"x_min":37,"x_max":959,"ha":998,"o":"m 744 112 l 697 238 l 292 238 l 244 110 q 197 9 217 35 q 133 -17 177 -17 q 66 10 95 -17 q 37 73 37 38 q 43 115 37 94 q 66 176 50 137 l 320 821 q 346 888 331 849 q 379 953 361 927 q 424 995 396 979 q 494 1011 452 1011 q 564 995 536 1011 q 609 954 592 979 q 639 900 627 929 q 669 823 650 871 l 928 182 q 959 75 959 108 q 930 11 959 40 q 860 -17 901 -17 q 820 -8 837 -17 q 791 14 803 0 q 767 59 780 29 q 744 112 753 89 m 345 389 l 642 389 l 492 798 l 345 389 m 331 1078 q 278 1098 301 1078 q 255 1154 255 1118 q 277 1209 255 1188 q 331 1231 299 1231 q 384 1211 361 1231 q 408 1154 408 1192 q 384 1098 408 1118 q 331 1078 361 1078 m 595 1231 q 633 1220 614 1231 q 661 1192 651 1210 q 672 1154 672 1173 q 649 1098 672 1118 q 595 1078 627 1078 q 542 1098 565 1078 q 519 1154 519 1118 q 542 1207 519 1184 q 595 1231 565 1231 "},"¸":{"x_min":72,"x_max":422,"ha":462,"o":"m 146 -65 q 242 -16 152 -16 q 336 -36 294 -16 q 399 -87 377 -56 q 422 -150 422 -118 q 397 -216 422 -186 q 325 -261 373 -245 q 206 -278 277 -278 q 72 -232 72 -278 q 81 -209 72 -219 q 108 -199 91 -199 q 143 -202 110 -199 q 201 -205 175 -205 q 275 -190 249 -205 q 301 -149 301 -175 q 282 -113 301 -126 q 225 -100 263 -100 q 192 -104 210 -100 q 172 -108 174 -108 q 152 -98 160 -108 q 144 -75 144 -88 q 145 -70 145 -72 q 146 -65 146 -68 "},"a":{"x_min":56,"x_max":767,"ha":826,"o":"m 564 87 q 434 9 497 35 q 293 -17 371 -17 q 168 11 222 -17 q 85 87 114 39 q 56 191 56 135 q 104 321 56 267 q 236 393 152 374 q 323 411 254 397 q 443 437 393 425 q 549 466 492 449 q 523 573 549 539 q 414 608 497 608 q 308 588 343 608 q 246 529 272 568 q 211 477 221 490 q 165 465 200 465 q 112 485 134 465 q 89 536 89 505 q 124 631 89 585 q 231 707 158 677 q 413 737 304 737 q 605 708 535 737 q 704 616 675 679 q 733 451 733 554 q 733 340 733 386 q 733 239 733 295 q 750 130 733 187 q 767 58 767 74 q 740 6 767 29 q 679 -17 713 -17 q 623 9 651 -17 q 564 87 595 36 m 552 355 q 433 323 511 340 q 325 299 355 306 q 268 268 296 291 q 241 205 241 245 q 273 133 241 163 q 357 104 305 104 q 458 128 412 104 q 526 190 505 152 q 552 328 552 232 l 552 355 "},"—":{"x_min":-8,"x_max":1397,"ha":1389,"o":"m 1397 289 l -8 289 l -8 414 l 1397 414 l 1397 289 "},"=":{"x_min":57,"x_max":753,"ha":810,"o":"m 753 252 l 57 252 l 57 430 l 753 430 l 753 252 m 753 553 l 57 553 l 57 731 l 753 731 l 753 553 "},"N":{"x_min":111,"x_max":943,"ha":1055,"o":"m 371 890 l 758 304 l 758 895 q 782 982 758 953 q 849 1011 807 1011 q 917 982 892 1011 q 943 895 943 953 l 943 113 q 834 -17 943 -17 q 785 -9 807 -17 q 745 15 764 -1 q 709 55 726 32 q 677 101 693 77 l 300 680 l 300 98 q 273 12 300 41 q 205 -17 246 -17 q 136 12 162 -17 q 111 98 111 42 l 111 865 q 121 941 111 914 q 164 991 134 972 q 229 1011 194 1011 q 275 1002 256 1011 q 309 978 295 993 q 339 939 324 963 q 371 890 354 916 "},"˚":{"x_min":90,"x_max":371,"ha":463,"o":"m 230 1063 q 329 1021 288 1063 q 371 922 371 980 q 329 823 371 864 q 230 782 288 782 q 159 801 191 782 q 109 851 128 820 q 90 922 90 883 q 131 1021 90 980 q 230 1063 172 1063 m 230 992 q 180 972 200 992 q 161 922 161 952 q 181 874 161 893 q 230 855 201 855 q 265 863 249 855 q 290 888 281 872 q 300 922 300 903 q 294 950 300 937 q 280 972 289 963 q 258 986 271 981 q 230 992 244 992 "},"ú":{"x_min":90,"x_max":750,"ha":839,"o":"m 576 87 l 576 110 q 506 40 543 68 q 426 -2 470 11 q 327 -16 383 -16 q 207 11 260 -16 q 124 88 153 39 q 90 258 90 147 l 90 625 q 115 708 90 681 q 181 736 140 736 q 249 708 223 736 q 275 625 275 680 l 275 328 q 285 220 275 264 q 324 151 296 176 q 401 127 353 127 q 489 154 448 127 q 550 227 531 182 q 566 399 566 266 l 566 625 q 591 708 566 680 q 658 736 617 736 q 724 708 699 736 q 750 625 750 681 l 750 88 q 725 9 750 35 q 664 -17 701 -17 q 601 10 626 -17 q 576 87 576 37 m 440 1002 l 531 1002 q 566 991 566 1002 q 528 947 566 986 q 451 873 490 908 q 397 830 412 838 q 315 811 359 811 q 286 827 286 811 q 303 868 286 839 l 334 925 q 380 988 360 974 q 440 1002 400 1002 "},"2":{"x_min":77,"x_max":773,"ha":826,"o":"m 310 160 l 664 160 q 745 138 717 160 q 773 79 773 116 q 750 23 773 46 q 684 0 728 0 l 184 0 q 105 28 133 0 q 77 94 77 56 q 95 159 77 118 q 135 222 113 199 q 298 382 225 316 q 401 470 370 449 q 494 549 457 510 q 550 631 531 589 q 570 713 570 673 q 549 790 570 756 q 493 844 528 825 q 415 863 457 863 q 275 784 326 863 q 252 729 268 774 q 217 659 237 683 q 158 635 197 635 q 102 657 124 635 q 79 718 79 679 q 100 816 79 765 q 163 908 121 867 q 269 975 205 950 q 419 1001 333 1001 q 596 968 523 1001 q 679 908 643 946 q 735 820 715 870 q 755 717 755 770 q 714 564 755 633 q 628 456 672 495 q 483 333 585 417 q 343 204 381 250 q 310 160 327 185 "},"ü":{"x_min":90,"x_max":750,"ha":839,"o":"m 576 87 l 576 110 q 506 40 543 68 q 426 -2 470 11 q 327 -16 383 -16 q 207 11 260 -16 q 124 88 153 39 q 90 258 90 147 l 90 625 q 115 708 90 681 q 181 736 140 736 q 249 708 223 736 q 275 625 275 680 l 275 328 q 285 220 275 264 q 324 151 296 176 q 401 127 353 127 q 489 154 448 127 q 550 227 531 182 q 566 399 566 266 l 566 625 q 591 708 566 680 q 658 736 617 736 q 724 708 699 736 q 750 625 750 681 l 750 88 q 725 9 750 35 q 664 -17 701 -17 q 601 10 626 -17 q 576 87 576 37 m 253 827 q 200 847 223 827 q 177 903 177 867 q 199 958 177 937 q 253 980 221 980 q 306 960 283 980 q 330 903 330 941 q 306 847 330 867 q 253 827 283 827 m 517 980 q 555 969 536 980 q 583 941 573 959 q 594 903 594 922 q 571 847 594 867 q 517 827 549 827 q 464 847 487 827 q 441 903 441 867 q 464 956 441 933 q 517 980 487 980 "},"¯":{"x_min":-8,"x_max":703,"ha":695,"o":"m -8 1122 l -8 1191 l 703 1191 l 703 1122 l -8 1122 "},"Z":{"x_min":8,"x_max":879,"ha":897,"o":"m 82 231 l 592 843 l 153 843 q 84 863 107 843 q 61 916 61 883 q 84 972 61 951 q 153 994 107 994 l 719 994 q 829 891 829 994 q 810 813 829 842 q 736 719 792 784 l 259 151 l 785 151 q 855 131 832 151 q 879 77 879 112 q 855 20 879 41 q 786 0 832 0 l 140 0 q 41 29 74 0 q 8 108 8 58 q 13 139 8 125 q 28 166 18 153 q 53 198 37 178 q 82 231 69 217 "},"u":{"x_min":90,"x_max":750,"ha":839,"o":"m 576 87 l 576 110 q 506 40 543 68 q 426 -2 470 11 q 327 -16 383 -16 q 207 11 260 -16 q 124 88 153 39 q 90 258 90 147 l 90 625 q 115 708 90 681 q 181 736 140 736 q 249 708 223 736 q 275 625 275 680 l 275 328 q 285 220 275 264 q 324 151 296 176 q 401 127 353 127 q 489 154 448 127 q 550 227 531 182 q 566 399 566 266 l 566 625 q 591 708 566 680 q 658 736 617 736 q 724 708 699 736 q 750 625 750 681 l 750 88 q 725 9 750 35 q 664 -17 701 -17 q 601 10 626 -17 q 576 87 576 37 "},"˜":{"x_min":1,"x_max":461,"ha":462,"o":"m 123 889 q 76 842 88 889 q 39 803 64 803 q 12 816 24 803 q 1 855 1 830 q 15 921 1 889 q 57 971 30 952 q 114 990 84 990 q 171 981 145 990 q 241 952 197 972 q 301 926 285 932 q 337 921 317 921 q 368 930 357 921 q 385 966 379 940 q 422 1005 396 1005 q 449 991 437 1005 q 461 952 461 977 q 432 866 461 914 q 342 819 403 819 q 295 826 319 819 q 228 853 271 834 q 164 880 185 872 q 123 889 143 889 "},"Ó":{"x_min":62,"x_max":1036,"ha":1100,"o":"m 545 1011 q 811 948 700 1011 q 979 769 922 885 q 1036 498 1036 654 q 1004 288 1036 383 q 911 125 973 194 q 757 19 848 56 q 549 -17 667 -17 q 340 20 433 -17 q 186 126 248 58 q 93 291 125 195 q 62 499 62 387 q 94 709 62 614 q 190 872 127 805 q 342 975 252 939 q 545 1011 431 1011 m 832 499 q 796 688 832 608 q 695 809 761 768 q 545 851 630 851 q 433 828 485 851 q 345 762 382 805 q 287 651 308 718 q 266 499 266 583 q 287 346 266 414 q 347 232 308 277 q 437 165 386 187 q 548 143 487 143 q 690 181 625 143 q 793 301 755 220 q 832 499 832 381 m 624 1253 l 716 1253 q 751 1243 751 1253 q 713 1199 751 1237 q 636 1125 675 1160 q 582 1082 597 1090 q 500 1063 544 1063 q 471 1079 471 1063 q 488 1119 471 1091 l 519 1176 q 565 1239 545 1226 q 624 1253 584 1253 "},"k":{"x_min":108,"x_max":745.015625,"ha":795,"o":"m 555 67 l 392 336 l 292 241 l 292 94 q 263 11 292 40 q 199 -17 235 -17 q 132 11 156 -17 q 108 95 108 39 l 108 884 q 131 978 108 946 q 199 1011 155 1011 q 266 981 241 1011 q 292 895 292 952 l 292 447 l 500 665 q 559 721 538 706 q 608 736 579 736 q 666 713 643 736 q 689 658 689 691 q 614 550 689 617 l 515 459 l 705 161 q 735 110 726 128 q 745 77 745 93 q 720 8 745 33 q 657 -17 696 -17 q 605 1 623 -17 q 555 67 587 19 "},"ˇ":{"x_min":5,"x_max":458,"ha":462,"o":"m 163 961 l 231 881 l 297 961 q 336 1002 326 995 q 375 1010 347 1010 l 430 1010 q 458 1000 458 1010 q 436 966 458 993 l 362 876 q 336 845 345 856 q 316 827 328 835 q 289 817 305 820 q 251 814 273 814 l 213 814 q 165 819 182 814 q 140 833 148 825 q 102 876 132 841 l 24 967 q 5 1000 5 993 q 10 1009 5 1008 q 34 1010 15 1010 l 87 1010 q 126 1001 115 1010 q 163 961 137 992 "},"Ù":{"x_min":110,"x_max":946,"ha":1055,"o":"m 110 410 l 110 888 q 137 980 110 949 q 209 1011 164 1011 q 283 980 256 1011 q 311 888 311 949 l 311 400 q 329 260 311 316 q 395 173 348 204 q 529 143 443 143 q 696 205 647 143 q 745 395 745 268 l 745 888 q 772 980 745 950 q 844 1011 799 1011 q 917 980 889 1011 q 946 888 946 950 l 946 410 q 923 216 946 294 q 837 79 900 138 q 711 6 783 29 q 543 -17 639 -17 q 345 7 428 -17 q 211 84 263 32 q 134 217 158 136 q 110 410 110 298 m 557 1176 l 587 1119 q 606 1079 606 1090 q 576 1063 606 1063 q 493 1082 532 1063 q 399 1163 474 1092 q 325 1243 325 1234 q 359 1253 325 1253 l 451 1253 q 511 1239 491 1253 q 557 1176 532 1224 "},"€":{"x_min":17,"x_max":793,"ha":826,"o":"m 300 365 q 456 122 324 122 q 547 145 506 122 q 626 257 588 169 q 668 328 650 314 q 706 342 686 342 q 770 318 747 342 q 793 253 793 295 q 695 68 793 153 q 458 -16 597 -16 q 231 78 328 -16 q 115 365 134 173 l 29 365 q 17 382 17 365 q 29 425 17 399 q 51 451 42 451 l 111 451 l 111 475 q 111 562 111 505 l 29 562 q 17 578 17 562 q 29 622 17 596 q 51 648 42 648 l 119 648 q 452 1002 163 1002 q 672 936 580 1002 q 765 772 765 870 q 743 716 765 739 q 690 693 721 693 q 639 710 655 693 q 608 764 623 728 q 561 838 588 813 q 468 864 534 864 q 353 811 394 864 q 302 648 313 759 l 520 648 q 534 630 534 648 q 521 586 534 611 q 499 562 508 562 l 296 562 l 296 495 q 296 451 296 464 l 520 451 q 534 434 534 451 q 521 389 534 414 q 499 365 508 365 l 300 365 "},"¢":{"x_min":60,"x_max":760,"ha":826,"o":"m 638 914 l 574 715 q 668 661 628 695 q 729 591 708 628 q 750 525 750 554 q 725 469 750 492 q 665 446 700 446 q 624 459 637 446 q 582 512 611 473 q 526 569 554 551 l 387 126 q 431 122 418 122 q 523 144 489 122 q 586 212 556 166 q 633 275 617 257 q 681 292 649 292 q 737 268 714 292 q 760 210 760 243 q 738 138 760 177 q 675 63 717 98 q 569 6 633 28 q 424 -16 505 -16 q 344 -9 382 -16 l 283 -201 q 264 -245 275 -228 q 236 -262 252 -262 q 191 -220 191 -262 q 204 -165 191 -209 l 261 11 q 151 88 197 39 q 83 206 106 138 q 60 356 60 273 q 70 464 60 414 q 103 558 81 515 q 157 636 125 601 q 231 694 189 671 q 320 726 272 717 q 431 736 369 736 q 489 733 471 736 l 554 937 q 574 978 562 964 q 604 992 585 992 q 645 946 645 992 q 638 914 645 931 m 313 170 l 446 596 q 428 598 432 598 q 334 570 375 598 q 269 488 292 542 q 245 359 245 434 q 313 170 245 227 "},"ß":{"x_min":82,"x_max":778,"ha":825,"o":"m 480 795 q 454 854 480 831 q 383 877 428 877 q 311 854 338 877 q 273 790 284 832 q 262 687 262 747 l 262 93 q 236 10 262 38 q 172 -17 211 -17 q 107 10 132 -17 q 82 92 82 38 l 82 673 q 85 749 82 715 q 96 817 88 784 q 121 878 105 850 q 225 978 160 946 q 387 1011 290 1011 q 536 984 475 1011 q 629 913 598 958 q 660 812 660 869 q 644 736 660 777 q 605 663 629 696 q 561 560 561 602 q 636 454 561 520 q 717 370 687 408 q 762 292 747 332 q 778 208 778 253 q 747 93 778 145 q 663 12 716 41 q 544 -17 610 -17 q 430 6 481 -17 q 349 65 379 30 q 320 130 320 100 q 341 179 320 158 q 392 200 362 200 q 457 158 428 200 q 529 117 486 117 q 586 142 562 117 q 611 201 611 167 q 579 277 611 236 q 498 353 547 318 q 414 439 448 391 q 381 523 381 487 q 431 663 381 584 q 480 795 480 741 "},"é":{"x_min":61,"x_max":765,"ha":825,"o":"m 612 314 l 250 314 q 274 202 250 250 q 340 130 299 154 q 431 106 382 106 q 492 113 465 106 q 546 138 520 121 q 593 173 571 154 q 649 224 615 192 q 690 237 664 237 q 736 221 718 237 q 753 177 753 205 q 734 118 753 152 q 674 54 714 85 q 575 3 635 23 q 437 -17 515 -17 q 159 84 258 -17 q 61 360 61 186 q 85 512 61 442 q 156 633 109 583 q 271 710 203 683 q 423 737 340 737 q 610 691 532 737 q 726 572 687 645 q 765 425 765 500 q 724 334 765 355 q 612 314 684 314 m 250 419 l 583 419 q 538 560 583 513 q 419 608 493 608 q 304 560 349 608 q 250 419 259 512 m 439 1001 l 531 1001 q 566 991 566 1001 q 528 947 566 985 q 451 873 490 908 q 397 830 412 838 q 315 811 359 811 q 286 827 286 811 q 303 867 286 839 l 334 924 q 380 987 360 974 q 439 1001 399 1001 "},"s":{"x_min":56.625,"x_max":691,"ha":752,"o":"m 691 225 q 653 93 691 148 q 543 11 616 39 q 366 -17 470 -17 q 195 13 266 -17 q 90 89 124 44 q 56 181 56 135 q 78 234 56 212 q 133 256 100 256 q 178 241 162 256 q 208 201 193 227 q 276 127 236 151 q 384 103 315 103 q 475 127 439 103 q 511 184 511 152 q 474 255 511 233 q 352 298 437 278 q 196 348 256 322 q 100 417 136 374 q 65 522 65 460 q 98 627 65 578 q 196 706 131 677 q 352 736 261 736 q 481 721 424 736 q 577 681 539 706 q 635 625 615 655 q 655 565 655 594 q 634 513 655 533 q 573 493 612 493 q 524 509 545 493 q 479 558 504 525 q 429 601 458 585 q 352 618 401 618 q 269 596 302 618 q 236 543 236 575 q 260 495 236 514 q 326 464 284 476 q 439 434 367 452 q 580 384 525 413 q 662 315 634 355 q 691 225 691 276 "},"B":{"x_min":107,"x_max":933,"ha":999,"o":"m 532 0 l 229 0 q 135 29 163 0 q 107 123 107 58 l 107 870 q 135 965 107 936 q 229 994 164 994 l 551 994 q 674 985 622 994 q 768 951 726 976 q 830 898 803 930 q 871 826 857 865 q 886 744 886 787 q 737 526 886 595 q 933 283 933 463 q 890 133 933 199 q 775 34 847 66 q 670 7 729 15 q 532 0 611 0 m 517 441 l 308 441 l 308 151 l 524 151 q 729 298 729 151 q 676 407 729 373 q 517 441 623 441 m 308 843 l 308 586 l 492 586 q 609 600 568 586 q 672 654 650 614 q 689 718 689 682 q 635 818 689 793 q 471 843 581 843 l 308 843 "},"…":{"x_min":131,"x_max":1260,"ha":1389,"o":"m 694 -16 q 623 11 654 -16 q 593 85 593 38 q 622 157 593 127 q 694 187 652 187 q 767 157 737 187 q 798 85 798 127 q 766 10 798 37 q 694 -16 735 -16 m 231 -16 q 161 10 191 -16 q 131 85 131 37 q 160 157 131 128 q 231 187 189 187 q 304 157 274 187 q 335 85 335 127 q 303 10 335 37 q 231 -16 272 -16 m 1156 -16 q 1085 11 1116 -16 q 1055 85 1055 38 q 1084 157 1055 127 q 1156 187 1114 187 q 1229 157 1199 187 q 1260 85 1260 127 q 1229 11 1260 38 q 1156 -16 1198 -16 "},"?":{"x_min":61.328125,"x_max":740,"ha":797,"o":"m 61 727 q 102 858 61 792 q 223 967 144 924 q 408 1011 302 1011 q 582 974 507 1011 q 698 876 657 938 q 740 740 740 813 q 716 639 740 682 q 660 564 693 596 q 544 458 628 533 q 507 421 521 437 q 486 392 493 405 q 476 365 480 378 q 465 319 472 352 q 384 248 452 248 q 325 271 349 248 q 301 340 301 294 q 318 439 301 397 q 365 512 336 480 q 444 587 394 543 q 507 644 487 625 q 539 687 526 663 q 553 739 553 711 q 512 830 553 793 q 408 868 472 868 q 298 830 333 868 q 238 719 263 792 q 151 643 215 643 q 87 669 113 643 q 61 727 61 696 m 392 -16 q 319 10 350 -16 q 289 85 289 37 q 318 157 289 128 q 392 187 348 187 q 463 157 434 187 q 493 85 493 128 q 462 11 493 38 q 392 -16 432 -16 "},"H":{"x_min":110,"x_max":947,"ha":1055,"o":"m 311 888 l 311 604 l 746 604 l 746 888 q 773 980 746 949 q 845 1011 800 1011 q 918 980 890 1011 q 947 888 947 950 l 947 105 q 918 13 947 44 q 845 -17 890 -17 q 773 13 800 -17 q 746 105 746 44 l 746 440 l 311 440 l 311 105 q 282 13 311 44 q 209 -17 254 -17 q 137 13 164 -17 q 110 105 110 44 l 110 888 q 136 980 110 949 q 209 1011 163 1011 q 282 980 254 1011 q 311 888 311 950 "},"î":{"x_min":-32,"x_max":421,"ha":376,"o":"m 281 630 l 281 95 q 254 11 281 39 q 187 -17 228 -17 q 121 12 146 -17 q 96 95 96 41 l 96 625 q 121 708 96 680 q 187 736 146 736 q 254 708 228 736 q 281 630 281 680 m 262 862 l 194 942 l 127 862 q 88 821 98 828 q 50 814 78 814 l -4 814 q -32 823 -32 814 q -10 857 -32 830 l 64 947 q 86 974 74 959 q 107 996 98 989 q 134 1006 117 1002 q 175 1010 152 1010 l 213 1010 q 274 999 257 1010 q 323 947 291 988 l 401 856 q 421 825 421 830 q 390 814 421 814 l 339 814 q 307 819 318 814 q 284 837 295 825 q 262 862 273 849 "},"c":{"x_min":60,"x_max":759.859375,"ha":826,"o":"m 759 212 q 739 138 759 177 q 676 63 718 98 q 569 5 633 27 q 424 -16 504 -16 q 156 84 252 -16 q 60 352 60 184 q 104 553 60 466 q 231 689 148 641 q 430 737 314 737 q 562 715 502 737 q 664 661 622 694 q 727 590 705 628 q 750 520 750 553 q 725 464 750 487 q 665 441 700 441 q 626 452 642 441 q 592 491 611 464 q 521 569 558 543 q 428 595 485 595 q 295 530 346 595 q 245 355 245 466 q 258 259 245 303 q 295 184 271 215 q 354 137 320 153 q 430 122 389 122 q 526 147 486 122 q 596 226 565 173 q 632 275 613 257 q 681 293 652 293 q 737 267 715 293 q 759 212 759 241 "},"¶":{"x_min":0.90625,"x_max":763,"ha":781,"o":"m 577 940 l 450 940 l 450 -270 l 380 -270 l 380 342 q 294 347 331 342 q 220 363 257 352 q 150 393 183 374 q 91 440 118 413 q 0 670 0 530 q 121 931 0 840 q 250 982 173 971 q 471 994 327 994 l 763 994 l 763 940 l 648 940 l 648 -270 l 577 -270 l 577 940 "},"•":{"x_min":46,"x_max":447,"ha":492,"o":"m 447 490 q 387 348 447 406 q 245 290 327 290 q 104 348 162 290 q 46 490 46 406 q 104 632 46 573 q 245 692 162 692 q 345 664 299 692 q 419 590 392 637 q 447 490 447 543 "},"¥":{"x_min":39,"x_max":830,"ha":869,"o":"m 195 301 l 348 301 l 348 399 l 195 399 q 99 462 99 399 q 195 525 99 525 l 281 525 l 78 842 q 46 897 54 880 q 39 933 39 913 q 60 989 39 968 q 115 1011 81 1011 q 171 989 150 1011 q 221 922 193 968 l 440 579 l 636 902 q 659 942 647 921 q 683 977 671 962 q 712 1001 694 992 q 753 1011 729 1011 q 808 990 787 1011 q 830 939 830 969 q 821 896 830 916 q 794 846 812 876 l 599 525 l 685 525 q 781 462 781 525 q 685 399 781 399 l 532 399 l 532 301 l 685 301 q 781 237 781 301 q 685 175 781 175 l 532 175 l 532 120 q 440 -17 532 -17 q 348 120 348 -17 l 348 175 l 195 175 q 99 237 99 175 q 195 301 99 301 "},"(":{"x_min":87,"x_max":425,"ha":491,"o":"m 87 359 q 104 550 87 461 q 158 726 122 639 q 247 899 194 812 q 300 976 279 952 q 341 1005 322 999 q 391 1011 361 1011 q 425 992 425 1011 q 393 919 425 986 q 335 777 362 851 q 284 593 307 703 q 261 359 261 482 q 284 127 261 237 q 336 -61 307 18 q 395 -204 366 -141 q 425 -273 425 -268 q 391 -292 425 -292 q 341 -285 360 -292 q 300 -255 321 -279 q 247 -179 279 -231 q 158 -6 193 -89 q 105 165 123 76 q 87 359 87 255 "},"U":{"x_min":110,"x_max":946,"ha":1055,"o":"m 110 410 l 110 888 q 137 980 110 949 q 209 1011 164 1011 q 283 980 256 1011 q 311 888 311 949 l 311 400 q 329 260 311 316 q 395 173 348 204 q 529 143 443 143 q 696 205 647 143 q 745 395 745 268 l 745 888 q 772 980 745 950 q 844 1011 799 1011 q 917 980 889 1011 q 946 888 946 950 l 946 410 q 923 216 946 294 q 837 79 900 138 q 711 6 783 29 q 543 -17 639 -17 q 345 7 428 -17 q 211 84 263 32 q 134 217 158 136 q 110 410 110 298 "},"◊":{"x_min":25.09375,"x_max":646.96875,"ha":686,"o":"m 377 0 l 294 0 l 25 523 l 294 1035 l 377 1035 l 646 523 l 377 0 m 563 523 l 336 959 l 108 523 l 336 75 l 563 523 "},"Ñ":{"x_min":111,"x_max":943,"ha":1055,"o":"m 371 890 l 758 304 l 758 895 q 782 982 758 953 q 849 1011 807 1011 q 917 982 892 1011 q 943 895 943 953 l 943 113 q 834 -17 943 -17 q 785 -9 807 -17 q 745 15 763 -1 q 709 55 726 32 q 677 101 693 77 l 300 680 l 300 98 q 273 12 300 41 q 205 -17 246 -17 q 136 12 162 -17 q 111 98 111 42 l 111 865 q 121 941 111 914 q 164 991 134 972 q 229 1011 194 1011 q 275 1002 256 1011 q 309 978 295 993 q 339 939 324 963 q 371 890 354 916 m 392 1141 q 346 1094 358 1141 q 309 1055 333 1055 q 281 1068 293 1055 q 270 1107 270 1082 q 284 1173 270 1141 q 326 1223 299 1204 q 384 1242 353 1242 q 441 1233 414 1242 q 510 1204 467 1224 q 570 1178 554 1184 q 606 1173 587 1173 q 637 1182 626 1173 q 654 1218 648 1192 q 691 1257 665 1257 q 718 1243 706 1257 q 730 1204 730 1229 q 701 1118 730 1166 q 612 1071 672 1071 q 564 1078 589 1071 q 497 1105 540 1086 q 434 1132 455 1124 q 392 1141 413 1141 "},"F":{"x_min":104,"x_max":796.671875,"ha":838,"o":"m 701 839 l 305 839 l 305 585 l 636 585 q 705 564 682 585 q 728 509 728 543 q 705 454 728 474 q 636 434 682 434 l 305 434 l 305 105 q 276 13 305 43 q 204 -17 248 -17 q 132 13 160 -17 q 104 105 104 44 l 104 870 q 116 941 104 913 q 157 981 129 968 q 227 994 184 994 l 701 994 q 773 972 749 994 q 796 916 796 951 q 773 860 796 881 q 701 839 749 839 "},"­":{"x_min":25,"x_max":439,"ha":463,"o":"m 339 279 l 124 279 q 50 301 75 279 q 25 360 25 324 q 49 419 25 396 q 124 442 74 442 l 339 442 q 414 419 389 442 q 439 360 439 396 q 414 301 439 324 q 339 279 390 279 "},":":{"x_min":115,"x_max":319,"ha":434,"o":"m 218 -17 q 145 10 176 -17 q 115 86 115 37 q 144 157 115 127 q 216 187 173 187 q 288 157 258 187 q 319 86 319 128 q 288 10 319 37 q 218 -17 258 -17 m 115 634 q 145 709 115 683 q 218 736 175 736 q 289 709 259 736 q 319 634 319 682 q 286 564 319 596 q 216 533 253 533 q 144 563 174 533 q 115 634 115 594 "},"Û":{"x_min":110,"x_max":946,"ha":1055,"o":"m 110 410 l 110 888 q 137 980 110 949 q 209 1011 164 1011 q 283 980 256 1011 q 311 888 311 949 l 311 400 q 329 260 311 316 q 395 173 348 204 q 529 143 443 143 q 696 205 647 143 q 745 395 745 268 l 745 888 q 772 980 745 950 q 844 1011 799 1011 q 917 980 889 1011 q 946 888 946 950 l 946 410 q 923 216 946 294 q 837 79 900 138 q 711 6 783 29 q 543 -17 639 -17 q 345 7 428 -17 q 211 84 263 32 q 134 217 158 136 q 110 410 110 298 m 569 1114 l 501 1193 l 433 1114 q 394 1073 404 1080 q 356 1066 384 1066 l 302 1066 q 275 1075 275 1066 q 295 1109 275 1082 l 370 1199 q 392 1226 380 1210 q 413 1247 404 1241 q 440 1257 423 1254 q 481 1261 458 1261 l 519 1261 q 580 1250 564 1261 q 630 1199 597 1239 l 708 1107 q 728 1077 728 1082 q 697 1066 728 1066 l 645 1066 q 613 1071 625 1066 q 590 1089 601 1077 q 569 1114 579 1101 "},"*":{"x_min":22,"x_max":586,"ha":608,"o":"m 341 827 q 425 868 385 848 q 488 898 465 889 q 527 908 512 908 q 568 892 551 908 q 586 852 586 876 q 577 824 586 838 q 559 805 568 809 q 366 755 471 770 q 412 708 385 737 q 442 677 440 679 q 470 642 452 663 q 495 609 488 620 q 503 580 503 597 q 486 542 503 558 q 444 526 470 526 q 386 566 418 526 q 303 709 354 606 q 234 586 252 616 q 200 541 217 556 q 163 526 184 526 q 121 543 138 526 q 105 580 105 560 q 111 608 105 598 q 242 755 174 692 q 140 775 185 764 q 45 806 95 785 q 29 825 37 810 q 22 852 22 840 q 39 892 22 876 q 78 908 56 908 q 119 898 95 908 q 181 869 143 888 q 267 827 219 851 q 252 926 258 870 q 247 1001 247 981 q 262 1044 247 1026 q 303 1063 278 1063 q 344 1044 328 1063 q 360 997 360 1026 q 357 964 360 988 q 350 906 355 940 q 341 827 346 872 "},"†":{"x_min":52,"x_max":776,"ha":826,"o":"m 329 -164 l 329 568 l 140 568 q 74 587 96 568 q 52 639 52 607 q 74 692 52 672 q 140 712 97 712 l 329 712 l 329 899 q 352 977 329 952 q 412 1003 375 1003 q 473 977 450 1003 q 497 899 497 952 l 497 712 l 686 712 q 753 692 731 712 q 776 639 776 672 q 753 587 776 607 q 686 568 731 568 l 497 568 l 497 -164 q 473 -241 497 -216 q 412 -267 450 -267 q 352 -241 375 -267 q 329 -164 329 -216 "},"°":{"x_min":58,"x_max":491,"ha":549,"o":"m 58 793 q 75 879 58 838 q 122 948 93 919 q 191 994 152 977 q 274 1011 230 1011 q 382 982 332 1011 q 461 902 432 953 q 491 793 491 852 q 461 685 491 735 q 383 606 432 635 q 274 578 333 578 q 121 641 185 578 q 58 793 58 704 m 171 793 q 202 720 171 750 q 275 691 233 691 q 346 720 316 691 q 377 793 377 750 q 363 846 377 822 q 325 884 349 870 q 275 898 301 898 q 201 867 232 898 q 171 793 171 836 "},"V":{"x_min":41,"x_max":912,"ha":955,"o":"m 255 878 l 480 212 l 705 883 q 732 957 723 936 q 761 994 741 977 q 817 1011 781 1011 q 864 998 842 1011 q 899 963 886 985 q 912 920 912 942 q 907 888 912 905 q 897 854 903 871 q 885 820 891 838 l 644 170 q 619 99 632 133 q 589 40 606 66 q 544 0 572 15 q 475 -17 516 -17 q 406 -1 434 -17 q 361 40 378 14 q 331 100 344 67 q 305 170 318 133 l 68 815 q 56 849 62 832 q 45 886 49 866 q 41 919 41 905 q 68 982 41 954 q 138 1011 96 1011 q 211 979 190 1011 q 255 878 232 947 "},"å":{"x_min":56,"x_max":767,"ha":826,"o":"m 564 87 q 433 9 496 35 q 293 -17 371 -17 q 168 11 222 -17 q 85 87 114 39 q 56 191 56 135 q 104 321 56 267 q 236 393 152 374 q 324 411 254 397 q 443 437 393 425 q 549 466 492 449 q 523 573 549 539 q 415 608 497 608 q 308 588 344 608 q 247 529 272 568 q 211 477 221 490 q 165 465 200 465 q 112 485 134 465 q 89 536 89 505 q 124 631 89 585 q 231 707 158 677 q 413 737 304 737 q 605 708 535 737 q 704 616 675 679 q 733 451 733 554 q 733 340 733 386 q 733 239 733 295 q 750 130 733 187 q 767 58 767 74 q 740 6 767 29 q 679 -17 713 -17 q 623 9 651 -17 q 564 87 595 36 m 552 355 q 433 323 510 340 q 326 299 355 306 q 268 268 296 291 q 241 205 241 245 q 273 133 241 163 q 357 104 305 104 q 458 128 411 104 q 526 190 504 152 q 552 328 552 232 l 552 355 m 385 1063 q 483 1021 442 1063 q 525 922 525 980 q 483 823 525 864 q 385 782 442 782 q 314 801 346 782 q 263 851 282 820 q 245 922 245 883 q 286 1021 245 980 q 385 1063 327 1063 m 385 992 q 335 972 355 992 q 316 922 316 952 q 335 874 316 893 q 385 855 355 855 q 419 863 403 855 q 444 888 435 872 q 454 922 454 903 q 448 950 454 937 q 434 972 443 963 q 412 986 425 981 q 385 992 399 992 "}," ":{"x_min":0,"x_max":0,"ha":347},"0":{"x_min":65,"x_max":759.8125,"ha":826,"o":"m 759 487 q 746 296 759 376 q 696 150 732 216 q 576 27 649 70 q 413 -16 503 -16 q 228 42 310 -16 q 105 204 146 100 q 74 328 84 260 q 65 476 65 396 q 75 660 65 578 q 109 801 86 742 q 226 950 149 899 q 408 1002 302 1002 q 535 979 478 1002 q 635 912 592 956 q 708 804 678 868 q 759 487 759 692 m 574 501 q 559 704 574 625 q 508 823 544 783 q 410 864 473 864 q 286 773 321 864 q 251 495 251 683 q 265 286 251 368 q 316 163 280 205 q 412 122 351 122 q 510 165 474 122 q 559 289 545 208 q 574 501 574 370 "},"”":{"x_min":51.5,"x_max":572,"ha":636,"o":"m 160 805 l 151 805 q 82 835 113 805 q 51 909 51 866 q 82 981 51 952 q 157 1011 113 1011 q 240 970 208 1011 q 273 856 273 929 q 244 731 273 790 q 175 638 216 672 q 101 603 134 603 q 67 616 80 603 q 54 648 54 629 q 81 693 54 679 q 139 739 118 714 q 160 805 160 764 m 458 805 l 451 805 q 381 835 412 805 q 349 909 349 866 q 380 981 349 951 q 456 1011 411 1011 q 540 970 508 1011 q 572 856 572 930 q 543 730 572 788 q 475 637 515 672 q 400 603 434 603 q 365 616 378 603 q 353 648 353 629 q 380 693 353 678 q 438 740 419 716 q 458 805 458 764 "},"¾":{"x_min":35.5625,"x_max":1177,"ha":1185,"o":"m 976 51 l 976 105 l 782 105 q 699 167 699 105 q 707 194 699 183 q 738 229 715 206 l 950 465 q 988 501 974 490 q 1022 513 1002 513 q 1073 495 1055 513 q 1091 444 1091 477 l 1091 198 l 1120 198 q 1162 184 1147 198 q 1177 150 1177 170 q 1107 105 1177 105 l 1091 105 l 1091 51 q 1075 6 1091 21 q 1034 -8 1059 -8 q 976 51 976 -8 m 832 198 l 976 198 l 976 358 l 832 198 m 945 911 l 379 0 q 329 -37 358 -37 q 298 -24 313 -37 q 283 5 283 -12 q 296 40 283 19 l 865 958 q 892 997 881 986 q 924 1009 902 1009 q 957 997 945 1009 q 969 965 969 985 q 965 949 969 958 q 956 930 962 940 q 945 911 950 920 m 197 713 q 160 725 175 713 q 146 756 146 736 q 162 789 146 777 q 205 802 178 802 l 231 802 q 284 817 260 802 q 309 861 309 833 q 290 901 309 886 q 239 916 271 916 q 194 908 210 916 q 171 889 177 900 q 148 848 164 879 q 132 834 146 841 q 106 828 119 828 q 68 842 83 828 q 53 876 53 857 q 77 934 53 905 q 144 981 100 962 q 247 1001 188 1001 q 346 983 304 1001 q 411 935 388 965 q 435 868 435 905 q 419 812 435 836 q 375 765 404 789 q 439 714 417 745 q 462 644 462 682 q 400 527 462 576 q 242 478 339 478 q 131 502 179 478 q 59 561 84 526 q 35 624 35 595 q 52 658 35 643 q 94 674 69 674 q 122 666 108 674 q 139 650 135 659 q 181 582 160 602 q 242 562 201 562 q 307 583 279 562 q 336 641 336 605 q 313 696 336 675 q 250 717 290 717 q 236 717 241 717 q 223 716 231 717 q 208 714 216 715 q 197 713 201 713 "},"@":{"x_min":40,"x_max":1350.625,"ha":1360,"o":"m 843 642 l 860 717 l 1038 717 l 935 231 q 926 170 926 185 q 933 145 926 154 q 952 137 941 137 q 1047 184 989 137 q 1148 315 1105 232 q 1192 495 1192 397 q 1161 648 1192 576 q 1071 773 1130 720 q 927 856 1013 826 q 733 886 841 886 q 530 857 622 886 q 368 774 438 828 q 251 641 298 720 q 188 487 210 571 q 167 315 167 403 q 213 102 167 199 q 348 -59 259 5 q 562 -152 436 -125 q 845 -163 687 -180 q 1058 -106 971 -148 q 1206 12 1145 -64 l 1350 12 q 1258 -117 1315 -60 q 1126 -214 1202 -174 q 955 -273 1050 -253 q 750 -294 861 -294 q 449 -250 583 -294 q 224 -124 316 -206 q 86 72 133 -41 q 40 325 40 187 q 88 595 40 470 q 226 813 136 721 q 448 958 317 906 q 736 1011 578 1011 q 972 973 864 1011 q 1156 865 1079 935 q 1273 697 1233 794 q 1314 484 1314 601 q 1281 306 1314 393 q 1188 149 1248 218 q 1045 39 1127 79 q 868 -1 963 -1 q 782 18 813 -1 q 742 77 752 37 q 606 4 683 19 q 457 18 529 -11 q 341 117 385 47 q 297 289 297 187 q 342 499 297 396 q 473 668 388 602 q 664 734 557 734 q 843 642 786 734 m 472 291 q 505 166 472 209 q 594 123 539 123 q 707 173 658 123 q 781 302 755 224 q 806 452 806 380 q 797 517 806 488 q 772 567 789 546 q 732 600 755 589 q 679 612 709 612 q 571 565 619 612 q 497 444 523 519 q 472 291 472 370 "},"ö":{"x_min":52,"x_max":789,"ha":839,"o":"m 789 359 q 763 206 789 276 q 688 86 737 137 q 572 9 639 36 q 419 -17 504 -17 q 268 10 335 -17 q 152 87 201 37 q 77 207 102 138 q 52 359 52 276 q 77 513 52 443 q 151 632 103 583 q 268 709 199 682 q 419 736 336 736 q 572 708 503 736 q 689 631 640 681 q 763 512 738 581 q 789 359 789 442 m 603 359 q 553 535 603 472 q 419 598 503 598 q 323 570 365 598 q 260 487 282 542 q 237 359 237 432 q 259 232 237 287 q 322 149 281 178 q 419 121 363 121 q 553 184 503 121 q 603 359 603 247 m 254 827 q 201 847 224 827 q 178 903 178 867 q 200 958 178 937 q 254 980 222 980 q 307 960 284 980 q 331 903 331 941 q 307 847 331 867 q 254 827 284 827 m 518 980 q 556 969 537 980 q 584 941 574 959 q 595 903 595 922 q 572 847 595 867 q 518 827 550 827 q 465 847 488 827 q 442 903 442 867 q 465 956 442 933 q 518 980 488 980 "},"i":{"x_min":96,"x_max":281,"ha":377,"o":"m 281 630 l 281 95 q 254 11 281 39 q 187 -17 228 -17 q 121 12 146 -17 q 96 95 96 41 l 96 625 q 121 708 96 680 q 187 736 146 736 q 254 708 228 736 q 281 630 281 680 m 189 822 q 123 845 150 822 q 96 912 96 869 q 124 977 96 952 q 189 1003 152 1003 q 253 979 225 1003 q 281 912 281 956 q 253 846 281 870 q 189 822 226 822 "},"Õ":{"x_min":62,"x_max":1036,"ha":1100,"o":"m 545 1011 q 811 948 700 1011 q 979 769 922 885 q 1036 498 1036 654 q 1004 288 1036 383 q 911 125 973 194 q 757 19 848 56 q 549 -17 667 -17 q 340 20 433 -17 q 186 126 248 58 q 93 291 125 195 q 62 499 62 387 q 94 709 62 614 q 190 872 127 805 q 342 975 252 939 q 545 1011 431 1011 m 832 499 q 796 688 832 608 q 695 809 761 768 q 545 851 630 851 q 433 828 485 851 q 345 762 382 805 q 287 651 308 718 q 266 499 266 583 q 287 346 266 414 q 347 232 308 277 q 437 165 386 187 q 548 143 487 143 q 690 181 625 143 q 793 301 755 220 q 832 499 832 381 m 462 1141 q 415 1094 427 1141 q 378 1055 403 1055 q 351 1068 363 1055 q 340 1107 340 1082 q 354 1173 340 1141 q 396 1223 369 1204 q 453 1242 423 1242 q 510 1233 484 1242 q 580 1204 536 1224 q 640 1178 624 1184 q 676 1173 656 1173 q 707 1182 696 1173 q 724 1218 718 1192 q 761 1257 735 1257 q 788 1243 776 1257 q 800 1204 800 1229 q 771 1118 800 1166 q 681 1071 742 1071 q 634 1078 658 1071 q 567 1105 610 1086 q 503 1132 524 1124 q 462 1141 482 1141 "},"þ":{"x_min":92,"x_max":815.8125,"ha":869,"o":"m 267 905 l 267 609 q 375 703 319 673 q 503 734 431 734 q 660 689 588 734 q 774 561 732 645 q 815 360 815 476 q 791 203 815 275 q 725 83 767 132 q 626 9 683 35 q 503 -17 568 -17 q 369 14 423 -17 q 267 108 315 46 l 267 -169 q 178 -292 267 -292 q 108 -260 125 -292 q 92 -168 92 -228 l 92 905 q 115 984 92 958 q 178 1011 138 1011 q 242 984 217 1011 q 267 905 267 958 m 630 362 q 607 488 630 435 q 545 568 585 540 q 457 597 505 597 q 328 536 380 597 q 275 359 275 476 q 328 187 275 248 q 457 126 380 126 q 543 152 503 126 q 606 233 582 179 q 630 362 630 286 "},"]":{"x_min":15.25,"x_max":392,"ha":492,"o":"m 216 -117 l 216 867 l 104 867 q 37 886 60 867 q 15 938 15 906 q 37 991 15 971 q 104 1011 60 1011 l 271 1011 q 363 981 334 1011 q 392 887 392 951 l 392 -137 q 363 -230 392 -200 q 271 -261 334 -261 l 104 -261 q 37 -241 60 -261 q 15 -189 15 -221 q 37 -136 15 -156 q 104 -117 60 -117 l 216 -117 "},"m":{"x_min":85,"x_max":1145,"ha":1229,"o":"m 712 346 l 712 99 q 685 12 712 41 q 615 -17 658 -17 q 547 12 573 -17 q 521 99 521 41 l 521 395 q 516 503 521 465 q 490 567 511 542 q 424 592 469 592 q 304 529 333 592 q 276 350 276 467 l 276 99 q 249 12 276 42 q 180 -17 223 -17 q 111 12 138 -17 q 85 99 85 42 l 85 629 q 109 708 85 681 q 172 736 133 736 q 236 710 210 736 q 261 640 261 685 l 261 623 q 364 707 309 680 q 486 735 419 735 q 606 707 556 735 q 689 623 656 679 q 789 707 736 680 q 908 735 843 735 q 1039 705 984 735 q 1121 619 1094 675 q 1145 461 1145 569 l 1145 99 q 1118 12 1145 41 q 1048 -17 1092 -17 q 979 12 1006 -17 q 953 99 953 42 l 953 411 q 947 507 953 471 q 920 567 942 543 q 852 592 898 592 q 783 570 816 592 q 732 511 750 548 q 712 346 712 465 "},"8":{"x_min":60,"x_max":765,"ha":825,"o":"m 93 741 q 129 869 93 809 q 238 966 166 930 q 405 1002 309 1002 q 547 980 486 1002 q 648 922 608 959 q 709 839 689 885 q 729 740 729 792 q 694 621 729 674 q 592 536 660 569 q 688 477 650 513 q 745 393 726 441 q 765 287 765 345 q 723 132 765 201 q 602 23 682 62 q 413 -16 522 -16 q 221 23 301 -16 q 100 131 141 62 q 60 285 60 200 q 232 536 60 468 q 93 741 93 601 m 579 292 q 557 384 579 345 q 496 445 535 424 q 408 466 457 466 q 292 419 339 466 q 245 291 245 373 q 267 198 245 238 q 327 135 289 157 q 412 114 365 114 q 497 136 459 114 q 557 199 535 158 q 579 292 579 239 m 409 872 q 307 832 346 872 q 268 730 268 792 q 308 634 268 672 q 411 596 348 596 q 469 606 443 596 q 513 634 495 616 q 542 677 532 652 q 553 731 553 701 q 535 803 553 771 q 484 853 517 835 q 409 872 451 872 "},"R":{"x_min":107,"x_max":933.953125,"ha":998,"o":"m 378 426 l 308 426 l 308 105 q 280 12 308 42 q 207 -17 252 -17 q 133 14 159 -17 q 107 105 107 45 l 107 870 q 136 964 107 935 q 230 994 165 994 l 558 994 q 674 988 626 994 q 761 964 722 982 q 843 908 807 945 q 898 823 879 872 q 917 721 917 775 q 854 543 917 610 q 664 449 791 477 q 766 365 717 421 q 853 246 815 309 q 912 133 891 184 q 933 63 933 82 q 921 24 933 44 q 887 -5 908 5 q 837 -17 865 -17 q 780 -1 803 -17 q 741 39 757 14 q 696 111 724 63 l 615 245 q 537 358 571 320 q 467 411 503 397 q 378 426 432 426 m 494 843 l 308 843 l 308 570 l 488 570 q 611 582 561 570 q 686 625 660 595 q 713 708 713 655 q 691 781 713 749 q 633 828 670 812 q 494 843 598 843 "},"á":{"x_min":56,"x_max":767,"ha":826,"o":"m 564 87 q 434 9 497 35 q 293 -17 371 -17 q 168 11 222 -17 q 85 87 114 39 q 56 191 56 135 q 104 321 56 267 q 236 393 152 374 q 324 411 254 397 q 443 437 394 425 q 549 466 492 449 q 523 573 549 539 q 415 608 497 608 q 308 588 344 608 q 247 529 272 568 q 211 477 221 490 q 165 465 200 465 q 112 485 134 465 q 89 536 89 505 q 124 631 89 585 q 231 707 158 677 q 413 737 304 737 q 605 708 535 737 q 704 616 675 679 q 733 451 733 554 q 733 340 733 386 q 733 239 733 295 q 750 130 733 187 q 767 58 767 74 q 740 6 767 29 q 679 -17 713 -17 q 623 9 651 -17 q 564 87 595 36 m 552 355 q 433 323 511 340 q 326 299 356 306 q 269 268 296 291 q 241 205 241 245 q 273 133 241 163 q 357 104 305 104 q 458 128 412 104 q 526 190 505 152 q 552 328 552 232 l 552 355 m 440 1001 l 532 1001 q 567 991 567 1001 q 529 947 567 985 q 452 873 491 908 q 398 830 413 838 q 316 811 360 811 q 287 827 287 811 q 304 867 287 839 l 335 924 q 381 987 361 974 q 440 1001 400 1001 "},"×":{"x_min":73.921875,"x_max":734.453125,"ha":810,"o":"m 198 161 l 75 284 l 279 489 l 73 695 l 200 820 l 405 615 l 611 820 l 733 697 l 528 491 l 734 286 l 609 160 l 402 366 l 198 161 "},"o":{"x_min":52,"x_max":789,"ha":839,"o":"m 789 359 q 763 206 789 276 q 688 86 737 137 q 572 9 639 36 q 419 -17 504 -17 q 268 10 335 -17 q 152 87 201 37 q 77 207 102 138 q 52 359 52 276 q 77 513 52 443 q 151 632 103 583 q 268 709 199 682 q 419 736 336 736 q 572 708 503 736 q 689 631 640 681 q 763 512 738 581 q 789 359 789 442 m 603 359 q 553 535 603 472 q 419 598 503 598 q 323 570 365 598 q 260 487 282 542 q 237 359 237 432 q 259 232 237 287 q 322 149 281 178 q 419 121 363 121 q 553 184 503 121 q 603 359 603 247 "},"5":{"x_min":73.984375,"x_max":773,"ha":826,"o":"m 643 827 l 320 827 l 282 607 q 459 659 378 659 q 581 634 525 659 q 681 567 638 610 q 748 464 724 523 q 773 337 773 405 q 728 158 773 239 q 601 30 684 78 q 409 -17 518 -17 q 212 27 288 -17 q 105 130 137 72 q 73 232 73 188 q 96 282 73 258 q 151 306 118 306 q 236 240 208 306 q 309 146 263 180 q 412 113 355 113 q 503 140 464 113 q 564 214 543 167 q 586 322 586 262 q 562 433 586 387 q 501 502 539 479 q 415 525 462 525 q 331 510 356 525 q 259 460 306 496 q 181 425 212 425 q 122 449 148 425 q 97 503 97 473 q 104 549 97 507 l 161 874 q 196 959 170 933 q 280 986 222 986 l 639 986 q 745 905 745 986 q 719 848 745 870 q 643 827 693 827 "},"õ":{"x_min":52,"x_max":789,"ha":839,"o":"m 789 359 q 763 206 789 276 q 688 86 737 137 q 572 9 639 36 q 419 -17 504 -17 q 268 10 335 -17 q 152 87 201 37 q 77 207 102 138 q 52 359 52 276 q 77 513 52 443 q 151 632 103 583 q 268 709 199 682 q 419 736 336 736 q 572 708 503 736 q 689 631 640 681 q 763 512 738 581 q 789 359 789 442 m 603 359 q 553 535 603 472 q 419 598 503 598 q 323 570 365 598 q 260 487 282 542 q 237 359 237 432 q 259 232 237 287 q 322 149 281 178 q 419 121 363 121 q 553 184 503 121 q 603 359 603 247 m 277 889 q 231 842 243 889 q 194 803 218 803 q 167 816 179 803 q 156 855 156 830 q 170 921 156 889 q 212 971 185 952 q 269 990 239 990 q 326 981 300 990 q 396 952 352 972 q 456 926 439 932 q 492 921 472 921 q 522 930 511 921 q 540 966 534 940 q 577 1005 551 1005 q 604 991 592 1005 q 616 952 616 977 q 587 866 616 914 q 497 819 558 819 q 450 826 474 819 q 382 853 425 834 q 319 880 340 872 q 277 889 298 889 "},"7":{"x_min":103,"x_max":791,"ha":825,"o":"m 216 985 l 667 985 q 761 964 732 985 q 791 897 791 944 q 756 822 791 869 q 678 719 722 775 q 588 578 635 662 q 503 372 542 494 q 480 283 487 319 q 465 192 473 248 q 451 105 457 135 q 411 9 437 36 q 341 -17 384 -17 q 275 11 300 -17 q 250 97 250 40 q 268 215 250 140 q 327 393 286 289 q 431 607 369 498 q 578 826 493 717 l 216 826 q 131 846 159 826 q 103 911 103 867 q 132 971 103 957 q 216 985 162 985 "},"K":{"x_min":112,"x_max":956.609375,"ha":1028,"o":"m 311 888 l 311 540 l 706 952 q 754 996 734 982 q 808 1011 774 1011 q 878 985 851 1011 q 905 923 905 960 q 859 836 905 879 l 614 604 l 896 199 q 941 126 926 157 q 956 65 956 94 q 930 7 956 31 q 859 -17 904 -17 q 791 0 817 -17 q 746 48 764 18 q 713 103 728 78 l 475 469 l 311 311 l 311 105 q 282 13 311 43 q 209 -17 254 -17 q 160 -3 183 -17 q 123 33 136 10 q 112 77 112 52 q 112 149 112 102 l 112 888 q 138 980 112 949 q 210 1011 164 1011 q 283 980 255 1011 q 311 888 311 950 "},",":{"x_min":111.140625,"x_max":334,"ha":435,"o":"m 221 -18 q 143 9 176 -18 q 111 86 111 37 q 143 158 111 129 q 218 188 175 188 q 277 170 251 188 q 319 118 304 152 q 334 33 334 84 q 305 -92 334 -33 q 235 -185 276 -150 q 161 -219 194 -219 q 127 -205 140 -219 q 114 -173 114 -191 q 141 -128 114 -145 q 221 -18 221 -84 "},"d":{"x_min":53,"x_max":778,"ha":868,"o":"m 603 88 l 603 107 q 529 37 565 64 q 450 -3 493 10 q 358 -17 408 -17 q 235 11 291 -17 q 137 91 178 39 q 74 214 95 143 q 53 367 53 285 q 137 637 53 540 q 360 735 222 735 q 495 707 440 735 q 603 623 550 680 l 603 896 q 625 981 603 952 q 690 1011 648 1011 q 755 984 732 1011 q 778 905 778 957 l 778 88 q 753 9 778 35 q 690 -17 729 -17 q 627 10 652 -17 q 603 88 603 37 m 238 360 q 262 232 238 285 q 326 152 285 179 q 415 126 366 126 q 504 151 463 126 q 568 229 544 176 q 592 360 592 282 q 568 488 592 434 q 503 569 544 541 q 413 597 462 597 q 322 569 362 597 q 260 486 282 540 q 238 360 238 432 "},"¨":{"x_min":24,"x_max":441,"ha":463,"o":"m 100 827 q 47 847 70 827 q 24 903 24 867 q 46 958 24 937 q 100 980 68 980 q 153 960 130 980 q 177 903 177 941 q 153 847 177 867 q 100 827 130 827 m 364 980 q 402 969 383 980 q 430 941 420 959 q 441 903 441 922 q 418 847 441 867 q 364 827 396 827 q 311 847 334 827 q 288 903 288 867 q 311 956 288 933 q 364 980 334 980 "},"Ô":{"x_min":62,"x_max":1036,"ha":1100,"o":"m 545 1011 q 811 948 700 1011 q 979 769 922 885 q 1036 498 1036 654 q 1004 288 1036 383 q 911 125 973 194 q 757 19 848 56 q 549 -17 667 -17 q 340 20 433 -17 q 186 126 248 58 q 93 291 125 195 q 62 499 62 387 q 94 709 62 614 q 190 872 127 805 q 342 975 252 939 q 545 1011 431 1011 m 832 499 q 796 688 832 608 q 695 809 761 768 q 545 851 630 851 q 433 828 485 851 q 345 762 382 805 q 287 651 308 718 q 266 499 266 583 q 287 346 266 414 q 347 232 308 277 q 437 165 386 187 q 548 143 487 143 q 690 181 625 143 q 793 301 755 220 q 832 499 832 381 m 638 1114 l 570 1193 l 502 1114 q 464 1073 474 1080 q 426 1066 453 1066 l 371 1066 q 344 1075 344 1066 q 365 1109 344 1082 l 440 1199 q 462 1225 449 1210 q 483 1247 474 1241 q 510 1257 492 1253 q 550 1261 527 1261 l 588 1261 q 650 1250 633 1261 q 699 1199 666 1239 l 777 1107 q 797 1077 797 1082 q 766 1066 797 1066 l 714 1066 q 682 1071 694 1066 q 660 1089 670 1077 q 638 1114 649 1101 "},"E":{"x_min":108,"x_max":873.921875,"ha":925,"o":"m 762 839 l 309 839 l 309 595 l 726 595 q 795 574 772 595 q 818 519 818 553 q 795 464 818 485 q 726 443 773 443 l 309 443 l 309 160 l 778 160 q 849 137 825 160 q 873 79 873 115 q 849 22 873 44 q 778 0 825 0 l 231 0 q 136 29 165 0 q 108 123 108 58 l 108 870 q 120 941 108 913 q 161 981 133 968 q 231 994 188 994 l 762 994 q 834 972 810 994 q 857 916 857 951 q 834 860 857 881 q 762 839 810 839 "},"Y":{"x_min":29,"x_max":837,"ha":868,"o":"m 330 105 l 330 421 l 87 797 q 42 876 55 848 q 29 926 29 905 q 55 985 29 960 q 121 1011 82 1011 q 184 987 163 1011 q 248 894 205 964 l 434 592 l 621 894 q 650 941 638 922 q 675 976 661 960 q 706 1002 689 993 q 748 1011 723 1011 q 811 986 786 1011 q 837 928 837 961 q 824 876 837 902 q 780 802 811 849 l 531 421 l 531 105 q 502 13 531 44 q 430 -17 474 -17 q 357 13 385 -17 q 330 105 330 43 "},"\"":{"x_min":77,"x_max":590,"ha":665,"o":"m 253 640 l 112 640 l 77 826 l 77 994 l 285 994 l 285 826 l 253 640 m 558 640 l 417 640 l 382 826 l 382 994 l 590 994 l 590 826 l 558 640 "},"‹":{"x_min":97,"x_max":390,"ha":507,"o":"m 365 551 l 243 355 l 372 150 q 390 102 390 125 q 372 59 390 76 q 327 43 354 43 q 289 55 306 43 q 247 107 273 68 l 126 289 q 97 354 97 333 q 126 424 97 378 l 251 611 q 326 667 287 667 q 370 650 352 667 q 389 610 389 633 q 385 587 389 596 q 376 569 382 578 q 365 551 371 559 "},"˙":{"x_min":155,"x_max":308,"ha":462,"o":"m 231 980 q 268 969 251 980 q 297 941 286 959 q 308 903 308 923 q 269 836 308 855 q 193 836 231 817 q 155 903 155 855 q 177 957 155 934 q 231 980 200 980 "},"ê":{"x_min":61,"x_max":765,"ha":825,"o":"m 612 314 l 250 314 q 274 202 250 250 q 340 130 299 154 q 431 106 381 106 q 492 113 464 106 q 545 138 519 121 q 592 173 571 154 q 649 224 614 192 q 690 237 663 237 q 736 221 718 237 q 753 177 753 205 q 734 118 753 152 q 674 54 714 85 q 575 3 635 23 q 437 -17 515 -17 q 159 84 258 -17 q 61 360 61 186 q 85 512 61 442 q 156 633 109 583 q 271 710 203 683 q 423 737 340 737 q 610 691 532 737 q 726 572 687 645 q 765 425 765 500 q 724 334 765 355 q 612 314 684 314 m 250 419 l 583 419 q 538 560 583 513 q 419 608 493 608 q 304 560 349 608 q 250 419 259 512 m 453 862 l 385 941 l 317 862 q 279 821 289 828 q 241 814 269 814 l 186 814 q 159 823 159 814 q 180 857 159 830 l 255 947 q 277 974 264 958 q 298 995 289 989 q 325 1005 307 1002 q 366 1009 343 1009 l 404 1009 q 465 998 449 1009 q 515 947 482 988 l 592 855 q 612 825 612 830 q 581 814 612 814 l 530 814 q 498 819 510 814 q 475 837 486 825 q 453 862 464 849 "},"Ï":{"x_min":-13,"x_max":404,"ha":436,"o":"m 117 105 l 117 888 q 144 980 117 949 q 216 1011 172 1011 q 289 980 261 1011 q 318 888 318 950 l 318 105 q 289 13 318 44 q 216 -17 261 -17 q 145 13 173 -17 q 117 105 117 44 m 63 1078 q 10 1098 33 1078 q -13 1154 -13 1118 q 9 1209 -13 1188 q 63 1231 31 1231 q 116 1211 93 1231 q 140 1154 140 1192 q 116 1098 140 1118 q 63 1078 93 1078 m 327 1231 q 365 1220 346 1231 q 393 1192 383 1210 q 404 1154 404 1173 q 381 1098 404 1118 q 327 1078 359 1078 q 274 1098 297 1078 q 251 1154 251 1118 q 274 1207 251 1184 q 327 1231 297 1231 "},"„":{"x_min":54.140625,"x_max":575,"ha":636,"o":"m 462 -18 q 384 9 417 -18 q 352 86 352 37 q 384 158 352 129 q 459 188 416 188 q 518 170 492 188 q 560 118 545 152 q 575 33 575 84 q 546 -92 575 -33 q 476 -185 517 -150 q 402 -219 435 -219 q 368 -205 381 -219 q 355 -173 355 -191 q 382 -128 355 -146 q 462 -18 462 -85 m 164 -18 q 86 9 119 -18 q 54 86 54 37 q 86 158 54 129 q 161 188 118 188 q 220 170 194 188 q 262 118 247 152 q 277 33 277 84 q 248 -92 277 -33 q 178 -185 219 -150 q 104 -219 137 -219 q 70 -205 83 -219 q 57 -173 57 -191 q 84 -128 57 -145 q 164 -18 164 -84 "},"Â":{"x_min":37,"x_max":959,"ha":998,"o":"m 744 112 l 696 238 l 292 238 l 245 110 q 197 9 217 35 q 133 -17 178 -17 q 66 10 95 -17 q 37 73 37 38 q 43 115 37 94 q 66 176 50 137 l 320 821 q 346 888 331 849 q 379 953 361 927 q 424 995 396 979 q 494 1011 452 1011 q 564 995 536 1011 q 609 954 592 979 q 638 900 626 929 q 668 823 650 871 l 928 182 q 959 75 959 108 q 930 11 959 40 q 860 -17 901 -17 q 820 -8 837 -17 q 791 14 803 0 q 766 59 780 29 q 744 112 753 89 m 345 389 l 642 389 l 492 798 l 345 389 m 531 1114 l 463 1194 l 395 1114 q 357 1073 367 1080 q 319 1066 346 1066 l 264 1066 q 237 1075 237 1066 q 258 1109 237 1082 l 333 1199 q 355 1226 342 1211 q 376 1248 367 1241 q 403 1258 385 1254 q 443 1262 420 1262 l 481 1262 q 543 1251 526 1262 q 592 1199 559 1240 l 670 1108 q 690 1077 690 1082 q 659 1066 690 1066 l 607 1066 q 575 1071 587 1066 q 553 1089 563 1077 q 531 1114 542 1101 "},"Í":{"x_min":95,"x_max":375,"ha":435,"o":"m 117 105 l 117 888 q 144 980 117 949 q 216 1011 172 1011 q 289 980 261 1011 q 318 888 318 950 l 318 105 q 289 13 318 44 q 216 -17 261 -17 q 145 13 173 -17 q 117 105 117 44 m 249 1253 l 340 1253 q 375 1243 375 1253 q 337 1199 375 1237 q 260 1125 299 1160 q 206 1082 221 1090 q 124 1063 168 1063 q 95 1079 95 1063 q 112 1119 95 1091 l 143 1176 q 189 1239 169 1226 q 249 1253 209 1253 "},"´":{"x_min":132,"x_max":412,"ha":462,"o":"m 285 1002 l 377 1002 q 412 991 412 1002 q 374 947 412 986 q 297 873 336 908 q 243 830 258 838 q 161 811 205 811 q 132 827 132 811 q 149 868 132 839 l 180 925 q 226 988 206 974 q 285 1002 245 1002 "},"ì":{"x_min":18,"x_max":298,"ha":375,"o":"m 280 630 l 280 95 q 253 11 280 39 q 186 -17 227 -17 q 120 12 145 -17 q 95 95 95 41 l 95 625 q 120 708 95 680 q 186 736 145 736 q 253 708 227 736 q 280 630 280 680 m 249 925 l 280 868 q 298 827 298 838 q 268 811 298 811 q 185 830 224 811 q 92 911 166 840 q 18 991 18 982 q 52 1001 18 1001 l 143 1001 q 204 987 183 1001 q 249 925 224 973 "},"±":{"x_min":57,"x_max":753,"ha":810,"o":"m 492 241 l 317 241 l 317 500 l 57 500 l 57 678 l 317 678 l 317 936 l 492 936 l 492 678 l 753 678 l 753 500 l 492 500 l 492 241 m 753 0 l 57 0 l 57 178 l 753 178 l 753 0 "},"Ú":{"x_min":110,"x_max":946,"ha":1055,"o":"m 110 410 l 110 888 q 137 980 110 949 q 209 1011 164 1011 q 283 980 256 1011 q 311 888 311 949 l 311 400 q 329 260 311 316 q 395 173 348 204 q 529 143 443 143 q 696 205 647 143 q 745 395 745 268 l 745 888 q 772 980 745 950 q 844 1011 799 1011 q 917 980 889 1011 q 946 888 946 950 l 946 410 q 923 216 946 294 q 837 79 900 138 q 711 6 783 29 q 543 -17 639 -17 q 345 7 428 -17 q 211 84 263 32 q 134 217 158 136 q 110 410 110 298 m 555 1253 l 647 1253 q 682 1243 682 1253 q 644 1199 682 1237 q 567 1125 606 1160 q 513 1082 528 1090 q 431 1063 475 1063 q 402 1079 402 1063 q 419 1119 402 1091 l 450 1176 q 496 1239 476 1226 q 555 1253 515 1253 "},"|":{"x_min":119,"x_max":270,"ha":389,"o":"m 270 918 l 270 -199 q 249 -268 270 -245 q 195 -292 228 -292 q 140 -268 162 -292 q 119 -199 119 -244 l 119 918 q 140 987 119 963 q 195 1011 162 1011 q 249 986 228 1011 q 270 918 270 962 "},"§":{"x_min":54,"x_max":771,"ha":825,"o":"m 117 789 q 150 900 117 848 q 249 982 184 951 q 404 1013 314 1013 q 527 995 470 1013 q 623 948 583 977 q 684 883 663 918 q 705 814 705 848 q 681 766 705 787 q 627 745 657 745 q 583 758 599 745 q 539 806 567 772 q 484 857 512 839 q 410 875 456 875 q 327 849 358 875 q 297 791 297 824 q 323 732 297 757 q 412 673 349 707 q 495 626 475 639 q 602 564 555 591 q 688 504 649 536 q 748 429 726 472 q 771 330 771 387 q 736 214 771 266 q 636 125 701 162 q 727 -53 727 49 q 706 -145 727 -102 q 645 -222 685 -188 q 550 -273 605 -255 q 430 -292 495 -292 q 290 -270 350 -292 q 186 -212 230 -249 q 122 -133 142 -174 q 101 -56 101 -92 q 125 3 101 -22 q 186 30 150 30 q 215 24 201 30 q 236 10 230 18 q 286 -64 271 -32 q 425 -154 325 -154 q 513 -124 479 -154 q 547 -55 547 -95 q 528 -5 547 -28 q 473 42 509 17 q 364 111 437 66 q 215 205 291 156 q 156 245 187 224 q 103 292 126 266 q 67 350 80 317 q 54 427 54 383 q 196 626 54 551 q 117 789 117 696 m 288 551 q 209 446 209 500 q 229 395 209 419 q 282 349 249 371 q 388 284 316 327 q 445 250 409 272 q 517 209 482 228 q 599 312 599 266 q 584 357 599 336 q 546 397 570 378 q 485 438 521 416 q 391 493 449 460 q 322 532 345 519 q 288 551 299 546 "},"Ý":{"x_min":29,"x_max":837,"ha":868,"o":"m 330 105 l 330 421 l 87 797 q 42 876 55 848 q 29 926 29 905 q 55 985 29 960 q 121 1011 82 1011 q 184 987 163 1011 q 248 894 205 964 l 434 592 l 622 894 q 650 941 639 922 q 676 976 662 960 q 706 1002 690 993 q 748 1011 723 1011 q 811 986 786 1011 q 837 928 837 961 q 824 876 837 902 q 780 802 811 849 l 531 421 l 531 105 q 502 13 531 44 q 430 -17 474 -17 q 357 13 385 -17 q 330 105 330 43 m 517 1254 l 609 1254 q 644 1243 644 1254 q 606 1199 644 1238 q 529 1125 568 1160 q 475 1082 490 1090 q 393 1063 437 1063 q 364 1079 364 1063 q 381 1120 364 1091 l 412 1177 q 458 1240 438 1226 q 517 1254 477 1254 "},"b":{"x_min":92,"x_max":815.8125,"ha":869,"o":"m 267 905 l 267 623 q 373 706 319 677 q 507 735 427 735 q 669 691 600 735 q 777 564 739 647 q 815 367 815 481 q 794 212 815 282 q 732 90 773 142 q 633 11 691 39 q 505 -17 575 -17 q 425 -6 463 -17 q 361 19 387 3 q 316 54 334 36 q 267 107 297 71 l 267 88 q 241 9 267 36 q 178 -17 216 -17 q 115 9 138 -17 q 92 88 92 36 l 92 897 q 114 982 92 953 q 178 1011 137 1011 q 243 983 220 1011 q 267 905 267 956 m 275 355 q 326 185 275 244 q 459 126 376 126 q 579 186 528 126 q 630 360 630 247 q 608 487 630 434 q 549 569 587 540 q 459 597 510 597 q 364 569 406 597 q 299 485 323 540 q 275 355 275 430 "},"q":{"x_min":54,"x_max":778,"ha":868,"o":"m 603 -168 l 603 92 q 491 11 549 39 q 362 -17 433 -17 q 205 28 276 -17 q 94 158 134 73 q 54 359 54 243 q 94 561 54 477 q 207 689 135 645 q 368 734 279 734 q 501 703 442 734 q 603 609 560 672 l 603 631 q 627 709 603 682 q 690 736 651 736 q 753 709 729 736 q 778 632 778 683 l 778 -168 q 690 -292 778 -292 q 619 -258 636 -292 q 603 -168 603 -225 m 239 360 q 263 232 239 285 q 327 152 288 178 q 412 126 366 126 q 503 152 461 126 q 569 231 544 178 q 594 363 594 285 q 580 464 594 419 q 540 538 565 508 q 482 582 515 567 q 413 597 450 597 q 289 535 338 597 q 239 360 239 473 "},"Ö":{"x_min":62,"x_max":1036,"ha":1100,"o":"m 545 1011 q 811 948 700 1011 q 979 769 922 885 q 1036 498 1036 654 q 1004 288 1036 383 q 911 125 973 194 q 757 19 848 56 q 549 -17 667 -17 q 340 20 433 -17 q 186 126 248 58 q 93 291 125 195 q 62 499 62 387 q 94 709 62 614 q 190 872 127 805 q 342 975 252 939 q 545 1011 431 1011 m 832 499 q 796 688 832 608 q 695 809 761 768 q 545 851 630 851 q 433 828 485 851 q 345 762 382 805 q 287 651 308 718 q 266 499 266 583 q 287 346 266 414 q 347 232 308 277 q 437 165 386 187 q 548 143 487 143 q 690 181 625 143 q 793 301 755 220 q 832 499 832 381 m 438 1078 q 385 1098 408 1078 q 362 1154 362 1118 q 384 1209 362 1188 q 438 1231 406 1231 q 491 1211 468 1231 q 515 1154 515 1192 q 491 1098 515 1118 q 438 1078 468 1078 m 702 1231 q 740 1220 721 1231 q 768 1192 758 1210 q 779 1154 779 1173 q 756 1098 779 1118 q 702 1078 734 1078 q 649 1098 672 1078 q 626 1154 626 1118 q 649 1207 626 1184 q 702 1231 672 1231 "},"z":{"x_min":16,"x_max":712,"ha":724,"o":"m 599 523 l 260 144 l 622 144 q 689 123 666 144 q 712 70 712 102 q 689 19 712 39 q 623 0 667 0 l 121 0 q 42 22 68 0 q 16 85 16 45 q 34 133 16 109 q 110 222 52 157 q 221 344 171 289 q 313 447 270 399 q 384 528 356 495 q 429 586 412 562 l 154 586 q 68 596 97 586 q 39 649 39 606 q 61 700 39 681 q 123 720 83 720 l 548 720 q 639 702 607 720 q 671 640 671 685 q 664 609 671 625 q 651 583 658 593 q 630 558 643 573 q 599 523 618 543 "},"ã":{"x_min":56,"x_max":767,"ha":826,"o":"m 564 87 q 434 9 497 35 q 293 -17 371 -17 q 168 11 222 -17 q 85 87 114 39 q 56 191 56 135 q 104 321 56 267 q 236 393 152 374 q 323 411 254 397 q 443 437 393 425 q 549 466 492 449 q 523 573 549 539 q 414 608 497 608 q 308 588 343 608 q 246 529 272 568 q 211 477 221 490 q 166 465 200 465 q 112 485 134 465 q 89 536 89 505 q 124 631 89 585 q 231 707 158 677 q 413 737 304 737 q 605 708 535 737 q 704 616 675 679 q 733 451 733 554 q 733 340 733 386 q 733 239 733 295 q 750 130 733 187 q 767 58 767 74 q 740 6 767 29 q 679 -17 713 -17 q 623 9 650 -17 q 564 87 595 36 m 552 355 q 433 323 511 340 q 325 299 355 306 q 268 268 296 291 q 241 205 241 245 q 273 133 241 163 q 357 104 305 104 q 458 128 412 104 q 526 190 505 152 q 552 328 552 232 l 552 355 m 277 889 q 231 842 243 889 q 194 803 218 803 q 167 816 179 803 q 156 855 156 830 q 170 921 156 889 q 212 971 185 952 q 269 990 239 990 q 326 981 300 990 q 396 952 352 972 q 456 926 440 932 q 492 921 472 921 q 523 930 511 921 q 540 966 534 940 q 576 1005 551 1005 q 603 991 592 1005 q 615 952 615 977 q 586 866 615 914 q 497 819 557 819 q 450 826 474 819 q 382 853 425 834 q 319 880 340 872 q 277 889 298 889 "},"æ":{"x_min":58,"x_max":1227,"ha":1287,"o":"m 872 737 q 1061 695 984 737 q 1188 566 1139 654 q 1227 426 1227 497 q 1103 315 1227 315 l 720 315 q 742 203 720 249 q 804 132 764 156 q 899 108 843 108 q 997 128 949 108 q 1067 179 1044 149 q 1119 233 1101 220 q 1158 246 1137 246 q 1220 172 1220 246 q 1203 125 1220 156 q 1148 61 1186 93 q 1049 5 1111 28 q 903 -17 987 -17 q 780 -4 834 -17 q 686 32 727 7 q 611 99 645 58 q 306 -17 471 -17 q 123 42 188 -17 q 58 189 58 101 q 270 399 58 356 q 544 465 510 448 l 544 473 q 518 576 544 545 q 405 608 493 608 q 304 587 337 608 q 248 524 272 566 q 211 467 224 482 q 159 453 198 453 q 105 473 125 453 q 85 526 85 493 q 121 630 85 581 q 228 707 156 678 q 405 737 301 737 q 551 719 494 737 q 652 656 607 701 q 756 717 705 698 q 872 737 807 737 m 719 421 l 1049 421 q 1005 560 1049 513 q 888 608 961 608 q 765 553 812 608 q 719 425 719 498 l 719 421 m 544 304 l 544 353 q 413 321 510 343 q 279 276 315 299 q 243 204 243 253 q 276 132 243 161 q 363 103 308 103 q 457 127 414 103 q 521 189 501 151 q 540 239 537 216 q 544 304 544 262 "},"®":{"x_min":-5,"x_max":1034,"ha":1029,"o":"m 393 213 l 280 213 l 280 765 l 541 765 q 643 745 602 765 q 705 690 684 726 q 727 607 727 654 q 687 506 727 549 q 578 454 648 464 q 636 414 614 441 q 695 323 658 387 l 760 213 l 621 213 l 576 301 q 521 389 544 361 q 477 428 499 418 q 422 439 454 439 l 393 439 l 393 213 m 393 677 l 393 527 l 483 527 q 576 542 544 527 q 608 606 608 558 q 580 657 608 638 q 494 677 552 677 l 393 677 m 514 1011 q 715 971 620 1011 q 882 859 810 931 q 994 692 954 786 q 1034 491 1034 597 q 964 229 1034 349 q 775 40 894 110 q 514 -29 655 -29 q 253 40 373 -29 q 64 229 134 110 q -5 491 -5 349 q 64 752 -5 632 q 253 941 134 871 q 514 1011 373 1011 m 515 909 q 305 853 402 909 q 153 700 209 797 q 97 491 97 604 q 153 280 97 377 q 306 128 210 184 q 515 73 402 73 q 725 128 630 73 q 876 281 820 184 q 932 491 932 377 q 876 701 932 605 q 725 853 820 797 q 515 909 629 909 "},"É":{"x_min":108,"x_max":873.921875,"ha":925,"o":"m 762 839 l 309 839 l 309 595 l 727 595 q 795 574 773 595 q 818 519 818 553 q 796 464 818 485 q 727 443 773 443 l 309 443 l 309 160 l 778 160 q 849 137 825 160 q 873 79 873 115 q 849 22 873 44 q 778 0 825 0 l 231 0 q 136 29 165 0 q 108 123 108 58 l 108 870 q 120 941 108 913 q 161 981 133 968 q 231 994 188 994 l 762 994 q 834 972 810 994 q 857 916 857 951 q 834 860 857 881 q 762 839 810 839 m 517 1253 l 609 1253 q 644 1242 644 1253 q 606 1198 644 1237 q 529 1125 568 1160 q 475 1082 490 1090 q 393 1063 437 1063 q 364 1079 364 1063 q 381 1119 364 1091 l 412 1176 q 458 1239 438 1226 q 517 1253 477 1253 "},"~":{"x_min":45,"x_max":765,"ha":810,"o":"m 229 446 q 45 352 133 446 l 45 527 q 138 599 89 578 q 249 621 188 621 q 338 608 295 621 q 425 578 380 596 q 512 544 470 560 q 579 529 555 529 q 671 554 621 529 q 765 627 720 579 l 765 444 q 711 402 744 423 q 644 367 678 380 q 579 354 609 354 q 488 365 530 354 q 393 400 447 377 q 306 434 340 422 q 229 446 271 446 "},"³":{"x_min":34.578125,"x_max":461,"ha":492,"o":"m 196 712 q 159 724 174 712 q 145 755 145 735 q 160 788 145 776 q 204 801 176 801 l 229 801 q 283 816 259 801 q 308 860 308 832 q 289 900 308 885 q 238 915 270 915 q 193 907 209 915 q 170 889 176 899 q 147 848 163 878 q 131 834 145 841 q 105 828 118 828 q 67 842 82 828 q 52 876 52 857 q 76 933 52 905 q 143 981 99 962 q 246 1000 187 1000 q 345 982 303 1000 q 410 934 387 964 q 434 867 434 904 q 418 811 434 835 q 374 764 403 788 q 438 713 416 744 q 461 644 461 681 q 399 527 461 576 q 241 478 338 478 q 130 502 178 478 q 58 560 83 526 q 34 623 34 595 q 51 657 34 642 q 93 673 68 673 q 121 665 107 673 q 138 649 134 658 q 180 582 159 602 q 241 562 200 562 q 306 583 278 562 q 335 641 335 605 q 312 695 335 675 q 249 716 289 716 q 235 716 240 716 q 222 715 230 716 q 207 713 215 714 q 196 712 200 712 "},"¡":{"x_min":129,"x_max":334,"ha":463,"o":"m 232 736 q 304 709 274 736 q 334 634 334 682 q 303 562 334 592 q 230 533 272 533 q 160 564 192 533 q 129 634 129 596 q 159 709 129 683 q 232 736 189 736 m 317 290 l 317 -36 q 317 -171 317 -133 q 290 -260 317 -228 q 218 -292 264 -292 q 148 -251 167 -292 q 129 -133 129 -210 q 133 -45 129 -95 l 165 290 q 182 382 165 350 q 240 415 199 415 q 299 382 282 415 q 317 290 317 350 "},"[":{"x_min":100,"x_max":476.734375,"ha":492,"o":"m 389 867 l 276 867 l 276 -117 l 389 -117 q 476 -189 476 -117 q 389 -261 476 -261 l 220 -261 q 151 -247 178 -261 q 112 -206 125 -233 q 100 -137 100 -178 l 100 887 q 128 981 100 951 q 220 1011 157 1011 l 389 1011 q 455 991 433 1011 q 476 938 476 971 q 389 867 476 867 "},"L":{"x_min":104,"x_max":814.296875,"ha":838,"o":"m 305 888 l 305 165 l 713 165 q 788 141 762 165 q 814 81 814 117 q 788 21 814 44 q 713 -1 762 -1 l 227 -1 q 132 28 161 -1 q 104 122 104 57 l 104 888 q 131 980 104 949 q 203 1011 158 1011 q 276 980 248 1011 q 305 888 305 950 "}," ":{"x_min":0,"x_max":0,"ha":347},"%":{"x_min":33,"x_max":1153,"ha":1186,"o":"m 458 738 q 401 546 458 609 q 245 483 344 483 q 135 509 184 483 q 60 593 87 536 q 33 732 33 650 q 54 879 33 820 q 122 969 75 938 q 242 1000 169 1000 q 335 983 295 1000 q 403 933 375 967 q 444 852 430 900 q 458 738 458 803 m 331 745 q 312 874 331 834 q 245 915 293 915 q 193 895 212 915 q 167 838 174 876 q 160 742 160 801 q 167 644 160 682 q 193 587 174 606 q 245 568 212 568 q 313 610 295 568 q 331 745 331 653 m 1153 248 q 1095 56 1153 119 q 939 -7 1038 -7 q 829 20 878 -7 q 753 103 780 47 q 726 242 726 160 q 776 442 726 375 q 937 509 827 509 q 1029 492 990 509 q 1097 443 1069 476 q 1139 362 1125 411 q 1153 248 1153 314 m 1026 255 q 1006 383 1026 343 q 939 424 987 424 q 886 405 905 424 q 859 349 867 386 q 852 253 852 312 q 871 120 852 162 q 939 78 890 78 q 1007 121 989 78 q 1026 255 1026 164 m 910 910 l 345 0 q 296 -37 323 -37 q 265 -25 281 -37 q 250 5 250 -14 q 263 39 250 19 l 831 957 q 857 995 846 983 q 890 1008 869 1008 q 923 996 910 1008 q 936 964 936 984 q 910 910 936 950 "},"P":{"x_min":108,"x_max":866,"ha":926,"o":"m 493 387 l 309 387 l 309 105 q 280 14 309 45 q 208 -17 252 -17 q 135 13 163 -17 q 108 104 108 44 l 108 870 q 138 965 108 937 q 235 994 169 994 l 493 994 q 670 976 608 994 q 775 920 731 959 q 842 823 819 880 q 866 695 866 766 q 772 465 866 543 q 493 387 678 387 m 444 843 l 309 843 l 309 539 l 444 539 q 563 553 516 539 q 636 602 611 568 q 662 691 662 636 q 623 798 662 757 q 444 843 579 843 "},"À":{"x_min":37,"x_max":959,"ha":998,"o":"m 744 112 l 696 238 l 292 238 l 245 110 q 197 9 217 35 q 133 -17 177 -17 q 66 10 95 -17 q 37 73 37 38 q 43 115 37 94 q 66 176 50 137 l 320 821 q 346 888 331 849 q 379 953 361 927 q 424 995 396 979 q 494 1011 452 1011 q 564 995 536 1011 q 609 954 592 979 q 638 900 626 929 q 668 823 650 871 l 928 182 q 959 75 959 108 q 930 11 959 40 q 860 -17 901 -17 q 820 -8 837 -17 q 791 14 803 0 q 766 59 780 29 q 744 112 753 89 m 345 389 l 642 389 l 492 798 l 345 389 m 519 1177 l 549 1120 q 568 1079 568 1090 q 538 1063 568 1063 q 455 1082 494 1063 q 361 1163 436 1092 q 287 1243 287 1234 q 321 1253 287 1253 l 413 1253 q 473 1239 453 1253 q 519 1177 494 1225 "},"_":{"x_min":-8,"x_max":703,"ha":695,"o":"m -8 -174 l -8 -105 l 703 -105 l 703 -174 l -8 -174 "},"ñ":{"x_min":90,"x_max":750,"ha":839,"o":"m 263 633 l 263 611 q 370 705 312 675 q 503 736 428 736 q 634 704 577 736 q 720 614 692 672 q 744 540 739 580 q 750 440 750 501 l 750 95 q 724 11 750 39 q 658 -17 699 -17 q 591 12 617 -17 q 566 95 566 41 l 566 404 q 540 544 566 495 q 438 593 515 593 q 348 563 389 593 q 288 482 307 533 q 275 327 275 441 l 275 95 q 248 11 275 39 q 181 -17 222 -17 q 115 12 141 -17 q 90 95 90 41 l 90 630 q 113 709 90 683 q 176 736 136 736 q 220 724 200 736 q 251 689 239 712 q 263 633 263 666 m 277 889 q 230 842 242 889 q 193 803 218 803 q 166 816 178 803 q 155 855 155 830 q 169 921 155 889 q 211 971 184 952 q 269 990 238 990 q 325 981 299 990 q 395 952 351 972 q 455 926 439 932 q 491 921 472 921 q 522 930 511 921 q 540 966 534 940 q 576 1005 550 1005 q 603 991 592 1005 q 615 952 615 977 q 586 866 615 914 q 497 819 557 819 q 449 826 474 819 q 382 853 425 834 q 318 880 339 872 q 277 889 297 889 "},"+":{"x_min":57,"x_max":753,"ha":810,"o":"m 492 143 l 317 143 l 317 401 l 57 401 l 57 579 l 317 579 l 317 839 l 492 839 l 492 579 l 753 579 l 753 401 l 492 401 l 492 143 "},"‚":{"x_min":111.140625,"x_max":334,"ha":435,"o":"m 221 -18 q 143 9 176 -18 q 111 86 111 37 q 143 158 111 129 q 218 188 175 188 q 277 170 251 188 q 319 118 304 152 q 334 33 334 84 q 305 -92 334 -33 q 235 -185 276 -150 q 161 -219 194 -219 q 127 -205 140 -219 q 114 -173 114 -191 q 141 -128 114 -145 q 221 -18 221 -84 "},"½":{"x_min":45.953125,"x_max":1160,"ha":1186,"o":"m 225 546 l 225 832 q 96 774 130 774 q 61 787 76 774 q 45 819 45 800 q 108 873 45 853 q 180 908 152 888 q 230 955 208 928 q 263 990 252 981 q 295 1000 274 1000 q 335 983 320 1000 q 351 938 351 966 l 351 559 q 287 482 351 482 q 242 499 260 482 q 225 546 225 516 m 1100 0 l 805 0 q 752 16 771 0 q 733 55 733 32 q 749 101 733 79 q 794 146 766 124 q 876 210 821 168 q 931 249 881 214 q 1002 307 981 283 q 1023 358 1023 330 q 999 405 1023 386 q 941 424 976 424 q 885 409 903 424 q 854 367 867 395 q 829 324 841 338 q 789 311 817 311 q 750 323 766 311 q 734 360 734 336 q 757 429 734 394 q 828 486 780 464 q 944 509 875 509 q 1061 488 1015 509 q 1128 434 1106 468 q 1150 360 1150 400 q 1123 281 1150 316 q 1046 208 1097 245 q 956 145 995 172 q 900 97 918 118 l 1087 97 q 1141 84 1122 97 q 1160 48 1160 71 q 1144 14 1160 29 q 1100 0 1129 0 m 908 910 l 342 0 q 292 -37 319 -37 q 260 -25 276 -37 q 245 5 245 -13 q 259 40 245 19 l 829 958 q 855 996 844 985 q 887 1008 866 1008 q 920 996 908 1008 q 932 965 932 984 q 908 910 932 948 "},"Æ":{"x_min":-3.6875,"x_max":1328.28125,"ha":1376,"o":"m 627 239 l 269 239 l 208 98 q 157 13 185 44 q 83 -17 129 -17 q 20 5 43 -17 q -3 56 -3 27 q 0 91 -3 77 q 6 114 2 105 q 22 149 9 122 l 355 873 q 396 953 384 933 q 430 983 407 973 q 497 994 452 994 l 1216 994 q 1287 972 1264 994 q 1311 916 1311 951 q 1288 862 1311 882 q 1217 843 1265 843 l 821 843 l 821 595 l 1182 595 q 1251 573 1228 595 q 1274 518 1274 552 q 1250 463 1274 483 q 1182 443 1227 443 l 821 443 l 821 151 l 1231 151 q 1304 132 1280 151 q 1328 77 1328 113 q 1304 20 1328 41 q 1231 0 1280 0 l 747 0 q 655 28 684 0 q 627 117 627 56 l 627 239 m 335 399 l 627 399 l 627 849 l 530 849 l 335 399 "},"Ë":{"x_min":108,"x_max":873.921875,"ha":925,"o":"m 763 839 l 309 839 l 309 595 l 727 595 q 795 574 773 595 q 818 519 818 553 q 796 464 818 485 q 727 443 773 443 l 309 443 l 309 160 l 778 160 q 849 137 825 160 q 873 79 873 115 q 849 22 873 44 q 778 0 825 0 l 231 0 q 136 29 165 0 q 108 123 108 58 l 108 870 q 120 941 108 913 q 161 981 133 968 q 231 994 188 994 l 762 994 q 834 972 810 994 q 857 916 857 951 q 834 860 857 881 q 763 839 810 839 m 331 1078 q 278 1098 301 1078 q 255 1154 255 1118 q 277 1209 255 1188 q 331 1231 299 1231 q 384 1211 361 1231 q 408 1154 408 1192 q 384 1098 408 1118 q 331 1078 361 1078 m 595 1231 q 633 1220 614 1231 q 661 1192 651 1210 q 672 1154 672 1173 q 649 1098 672 1118 q 595 1078 627 1078 q 542 1098 565 1078 q 519 1154 519 1118 q 542 1207 519 1184 q 595 1231 565 1231 "},"'":{"x_min":62,"x_max":270,"ha":333,"o":"m 238 640 l 97 640 l 62 826 l 62 994 l 270 994 l 270 826 l 238 640 "},"ª":{"x_min":24,"x_max":495,"ha":521,"o":"m 355 607 q 270 562 307 576 q 183 549 234 549 q 68 587 112 549 q 24 681 24 626 q 48 756 24 728 q 112 798 72 784 q 235 827 153 811 q 339 849 318 844 q 324 901 339 885 q 261 917 309 917 q 191 905 207 917 q 154 862 176 893 q 103 832 132 832 q 62 846 80 832 q 44 883 44 860 q 68 944 44 914 q 140 992 91 973 q 261 1011 188 1011 q 426 970 379 1011 q 473 833 473 929 q 473 765 473 790 q 473 708 473 739 q 484 647 473 679 q 495 601 495 614 q 475 563 495 579 q 431 547 456 547 q 403 555 417 547 q 379 576 390 563 q 355 607 367 588 m 342 755 l 342 763 q 265 746 335 762 q 177 721 195 731 q 160 689 160 711 q 177 652 160 667 q 225 638 195 638 q 310 667 279 638 q 342 755 342 696 "},"˛":{"x_min":64,"x_max":399.421875,"ha":463,"o":"m 64 -129 q 89 -54 64 -93 q 147 11 114 -15 q 204 37 181 37 q 240 19 224 37 q 256 -15 256 2 q 249 -38 256 -29 q 227 -65 242 -47 q 198 -113 198 -94 q 245 -146 198 -146 q 299 -134 260 -146 q 351 -122 337 -122 q 386 -136 372 -122 q 399 -169 399 -151 q 372 -213 399 -194 q 301 -242 345 -232 q 221 -252 258 -252 q 139 -237 174 -252 q 83 -194 103 -222 q 64 -129 64 -166 "},"ð":{"x_min":49,"x_max":788.8125,"ha":839,"o":"m 547 894 l 540 890 q 679 723 624 810 q 761 546 734 636 q 788 370 788 457 q 742 162 788 251 q 612 27 695 73 q 417 -19 528 -19 q 223 29 306 -19 q 94 162 139 77 q 49 360 49 248 q 97 549 49 467 q 227 674 146 630 q 399 719 308 719 q 490 700 447 719 q 445 759 468 733 q 397 810 422 786 l 336 777 q 265 747 285 747 q 232 763 245 747 q 220 795 220 779 q 235 829 220 817 q 289 863 250 841 l 319 880 q 284 947 284 914 q 302 991 284 971 q 351 1011 320 1011 q 407 997 382 1011 q 464 961 432 983 l 500 980 q 545 1004 532 999 q 571 1010 557 1010 q 604 994 591 1010 q 617 962 617 979 q 602 929 617 941 q 547 894 587 917 m 234 352 q 258 226 234 278 q 324 146 282 173 q 417 119 366 119 q 510 146 468 119 q 577 225 552 173 q 603 350 603 277 q 553 520 603 460 q 419 581 503 581 q 286 519 337 581 q 234 352 234 457 "},"T":{"x_min":12,"x_max":857,"ha":868,"o":"m 753 828 l 534 828 l 534 105 q 506 13 534 43 q 434 -17 478 -17 q 361 13 389 -17 q 333 105 333 44 l 333 828 l 113 828 q 37 850 62 828 q 12 910 12 873 q 38 971 12 949 q 113 994 64 994 l 753 994 q 831 970 806 994 q 857 910 857 947 q 831 850 857 873 q 753 828 805 828 "},"Þ":{"x_min":108,"x_max":866,"ha":926,"o":"m 493 195 l 309 195 l 309 104 q 280 13 309 44 q 207 -17 252 -17 q 135 13 162 -17 q 108 104 108 44 l 108 890 q 134 980 108 949 q 207 1011 161 1011 q 258 997 235 1011 q 294 962 282 984 q 306 921 306 944 q 306 844 306 897 l 306 800 l 493 800 q 667 783 600 800 q 785 716 734 767 q 846 622 826 675 q 866 502 866 569 q 493 195 866 195 m 444 648 l 309 648 l 309 346 l 444 346 q 562 360 514 346 q 636 407 611 374 q 662 496 662 441 q 623 603 662 559 q 444 648 579 648 "},"j":{"x_min":-102,"x_max":282,"ha":376,"o":"m 282 625 l 282 -2 q 277 -112 282 -69 q 265 -173 273 -154 q 69 -292 218 -292 q -58 -268 -15 -292 q -102 -201 -102 -245 q -82 -148 -102 -169 q -30 -128 -62 -128 q -17 -129 -26 -128 q 9 -131 -8 -131 q 34 -131 27 -131 q 84 -102 71 -131 q 97 0 97 -74 l 97 625 q 122 708 97 680 q 190 736 148 736 q 256 708 231 736 q 282 625 282 681 m 190 822 q 124 845 151 822 q 97 912 97 869 q 125 977 97 952 q 190 1003 153 1003 q 254 979 226 1003 q 282 912 282 956 q 254 846 282 870 q 190 822 227 822 "},"1":{"x_min":87.5,"x_max":576,"ha":825,"o":"m 392 92 l 392 710 q 160 578 219 578 q 109 600 131 578 q 87 653 87 623 q 109 704 87 687 q 185 746 130 720 q 317 827 267 785 q 404 923 366 870 q 453 988 442 976 q 496 1001 465 1001 q 554 973 532 1001 q 576 896 576 945 l 576 119 q 483 -17 576 -17 q 417 10 442 -17 q 392 92 392 38 "},"›":{"x_min":117,"x_max":410,"ha":508,"o":"m 136 150 l 265 355 l 143 551 q 130 571 136 562 q 121 589 124 579 q 118 610 118 599 q 137 650 118 633 q 180 667 156 667 q 255 611 219 667 l 380 424 q 410 354 410 381 q 380 289 410 333 l 261 107 q 219 56 237 70 q 180 43 201 43 q 135 60 153 43 q 117 102 117 77 q 136 150 117 125 "},"ä":{"x_min":56,"x_max":767,"ha":826,"o":"m 564 87 q 434 9 497 35 q 293 -17 371 -17 q 168 11 222 -17 q 85 87 114 39 q 56 191 56 135 q 104 321 56 267 q 236 393 152 374 q 324 411 254 397 q 443 437 393 425 q 549 466 492 449 q 523 573 549 539 q 414 608 497 608 q 308 588 344 608 q 246 529 272 568 q 210 477 221 490 q 165 465 200 465 q 112 485 134 465 q 89 536 89 505 q 124 631 89 585 q 231 707 158 677 q 413 737 304 737 q 605 708 535 737 q 704 616 675 679 q 733 451 733 554 q 733 340 733 386 q 733 239 733 295 q 750 130 733 187 q 767 58 767 74 q 740 6 767 29 q 679 -17 713 -17 q 623 9 651 -17 q 564 87 595 36 m 552 355 q 433 323 511 340 q 326 299 356 306 q 269 268 296 291 q 241 205 241 245 q 273 133 241 163 q 357 104 305 104 q 458 128 412 104 q 526 190 505 152 q 552 328 552 232 l 552 355 m 254 827 q 201 847 224 827 q 178 903 178 867 q 200 958 178 937 q 254 980 222 980 q 307 960 284 980 q 331 903 331 941 q 307 847 331 867 q 254 827 284 827 m 518 980 q 556 969 537 980 q 584 941 574 959 q 595 903 595 922 q 572 847 595 867 q 518 827 550 827 q 465 847 488 827 q 442 903 442 867 q 465 956 442 933 q 518 980 488 980 "},"<":{"x_min":64,"x_max":746,"ha":810,"o":"m 746 305 l 746 113 l 64 409 l 64 573 l 746 869 l 746 676 l 270 493 l 746 305 "},"£":{"x_min":9,"x_max":826,"ha":825,"o":"m 334 558 l 435 558 q 521 546 491 558 q 552 494 552 535 q 531 447 552 465 q 478 430 511 430 l 359 430 l 359 418 q 328 293 359 350 q 220 149 297 235 q 264 159 242 155 q 314 168 286 164 q 374 172 341 172 q 501 161 419 172 q 609 151 582 151 q 692 165 647 151 q 748 179 736 179 q 802 154 778 179 q 826 96 826 130 q 762 10 826 40 q 627 -20 699 -20 q 377 28 583 -20 q 358 33 371 29 q 327 40 346 37 q 281 43 308 43 q 231 34 253 43 q 156 4 209 26 q 84 -17 103 -17 q 33 6 58 -17 q 9 67 9 29 q 17 97 9 81 q 45 133 26 113 q 102 185 64 153 q 160 267 137 214 q 184 370 184 319 q 177 430 184 388 l 120 430 q 44 442 69 430 q 19 491 19 454 q 105 558 19 558 l 145 558 q 112 725 112 664 q 151 873 112 808 q 263 976 190 939 q 431 1013 337 1013 q 574 992 514 1013 q 680 924 634 971 q 758 748 758 841 q 733 689 758 715 q 670 664 707 664 q 582 737 604 664 q 528 841 562 807 q 436 875 494 875 q 336 834 374 875 q 297 730 297 794 q 305 658 297 691 q 334 558 314 624 "},"¹":{"x_min":45.953125,"x_max":351,"ha":491,"o":"m 225 545 l 225 832 q 96 774 130 774 q 61 787 76 774 q 45 819 45 800 q 108 873 45 853 q 180 908 152 888 q 230 955 208 928 q 263 990 252 981 q 295 1000 274 1000 q 335 983 320 1000 q 351 938 351 966 l 351 559 q 287 482 351 482 q 242 498 260 482 q 225 545 225 515 "},"t":{"x_min":20,"x_max":520,"ha":492,"o":"m 106 720 l 127 720 l 127 831 q 129 901 127 875 q 142 944 131 926 q 173 975 153 963 q 219 987 194 987 q 282 961 254 987 q 306 918 301 943 q 312 845 312 892 l 312 720 l 379 720 q 439 701 418 720 q 460 653 460 682 q 430 600 460 615 q 346 586 401 586 l 312 586 l 312 245 q 315 178 312 201 q 331 140 318 155 q 374 126 344 126 q 418 132 390 126 q 461 138 445 138 q 501 119 483 138 q 520 75 520 101 q 471 6 520 30 q 330 -17 422 -17 q 199 12 244 -17 q 140 93 154 41 q 127 230 127 144 l 127 586 l 102 586 q 41 605 62 586 q 20 653 20 624 q 42 701 20 682 q 106 720 64 720 "},"¬":{"x_min":57.171875,"x_max":753,"ha":810,"o":"m 753 255 l 578 255 l 578 553 l 57 553 l 57 731 l 753 731 l 753 255 "},"ù":{"x_min":90,"x_max":750,"ha":839,"o":"m 576 87 l 576 110 q 506 40 543 68 q 426 -2 470 11 q 327 -16 383 -16 q 207 11 260 -16 q 124 88 153 39 q 90 258 90 147 l 90 625 q 115 708 90 681 q 181 736 140 736 q 249 708 223 736 q 275 625 275 680 l 275 328 q 285 220 275 264 q 324 151 296 176 q 401 127 353 127 q 489 154 448 127 q 550 227 531 182 q 566 399 566 266 l 566 625 q 591 708 566 680 q 658 736 617 736 q 724 708 699 736 q 750 625 750 681 l 750 88 q 725 9 750 35 q 664 -17 701 -17 q 601 10 626 -17 q 576 87 576 37 m 441 924 l 471 867 q 490 827 490 838 q 460 811 490 811 q 377 830 416 811 q 283 911 358 840 q 209 991 209 982 q 243 1001 209 1001 l 335 1001 q 395 987 375 1001 q 441 924 416 972 "},"W":{"x_min":24,"x_max":1278,"ha":1303,"o":"m 812 156 l 652 752 l 489 156 q 459 59 470 88 q 420 6 447 29 q 346 -17 392 -17 q 284 -3 308 -17 q 245 36 260 10 q 221 96 230 61 q 204 161 211 131 l 38 830 q 24 919 24 888 q 51 984 24 958 q 118 1011 78 1011 q 192 975 173 1011 q 225 873 211 940 l 355 292 l 501 836 q 530 930 517 898 q 572 987 543 963 q 652 1011 601 1011 q 731 986 702 1011 q 770 932 759 961 q 799 836 780 903 l 946 292 l 1076 873 q 1094 944 1086 918 q 1123 990 1103 970 q 1183 1011 1144 1011 q 1250 984 1223 1011 q 1278 919 1278 958 q 1263 830 1278 891 l 1097 161 q 1069 62 1080 93 q 1031 6 1058 30 q 955 -17 1004 -17 q 881 6 909 -17 q 843 57 854 29 q 812 156 832 86 "},"ï":{"x_min":-13,"x_max":404,"ha":378,"o":"m 281 630 l 281 95 q 254 11 281 39 q 187 -17 228 -17 q 121 12 146 -17 q 96 95 96 41 l 96 625 q 121 708 96 680 q 187 736 146 736 q 254 708 228 736 q 281 630 281 680 m 63 827 q 10 847 33 827 q -13 903 -13 867 q 9 958 -13 937 q 63 980 31 980 q 116 960 93 980 q 140 903 140 941 q 116 847 140 867 q 63 827 93 827 m 327 980 q 365 969 346 980 q 393 941 383 959 q 404 903 404 922 q 381 847 404 867 q 327 827 359 827 q 274 847 297 827 q 251 903 251 867 q 274 956 251 933 q 327 980 297 980 "},">":{"x_min":64,"x_max":746,"ha":810,"o":"m 746 409 l 64 112 l 64 304 l 540 491 l 64 676 l 64 866 l 746 572 l 746 409 "},"v":{"x_min":37,"x_max":715,"ha":752,"o":"m 226 620 l 376 200 l 537 638 q 574 713 556 691 q 630 736 592 736 q 690 712 665 736 q 715 657 715 688 q 710 628 715 645 q 700 598 706 612 q 687 565 694 584 l 509 124 q 490 76 502 105 q 463 26 478 47 q 427 -5 449 6 q 376 -17 406 -17 q 313 0 336 -17 q 278 40 289 18 q 241 124 267 61 l 64 560 q 52 593 58 577 q 41 626 45 609 q 37 655 37 643 q 48 693 37 674 q 80 724 60 712 q 124 736 100 736 q 187 709 170 736 q 226 620 205 683 "},"û":{"x_min":90,"x_max":750,"ha":839,"o":"m 576 87 l 576 110 q 506 40 543 68 q 426 -2 470 11 q 327 -16 383 -16 q 207 11 260 -16 q 124 88 153 39 q 90 258 90 147 l 90 625 q 115 708 90 681 q 181 736 140 736 q 249 708 223 736 q 275 625 275 680 l 275 328 q 285 220 275 264 q 324 151 296 176 q 401 127 353 127 q 489 154 448 127 q 550 227 531 182 q 566 399 566 266 l 566 625 q 591 708 566 680 q 658 736 617 736 q 724 708 699 736 q 750 625 750 681 l 750 88 q 725 9 750 35 q 664 -17 701 -17 q 601 10 626 -17 q 576 87 576 37 m 453 862 l 385 941 l 317 862 q 279 821 289 828 q 241 814 268 814 l 186 814 q 159 823 159 814 q 180 857 159 830 l 255 947 q 277 974 264 958 q 298 995 289 989 q 325 1005 307 1002 q 366 1009 343 1009 l 404 1009 q 465 998 449 1009 q 515 947 482 987 l 592 855 q 612 825 612 830 q 581 814 612 814 l 530 814 q 498 819 509 814 q 475 837 486 825 q 453 862 464 849 "},"Ò":{"x_min":62,"x_max":1036,"ha":1100,"o":"m 545 1011 q 811 948 700 1011 q 979 769 922 885 q 1036 498 1036 654 q 1004 288 1036 383 q 911 125 973 194 q 757 19 848 56 q 549 -17 667 -17 q 340 20 433 -17 q 186 126 248 58 q 93 291 125 195 q 62 499 62 387 q 94 709 62 614 q 190 872 127 805 q 342 975 252 939 q 545 1011 431 1011 m 832 499 q 796 688 832 608 q 695 809 761 768 q 545 851 630 851 q 433 828 485 851 q 345 762 382 805 q 287 651 308 718 q 266 499 266 583 q 287 346 266 414 q 347 232 308 277 q 437 165 386 187 q 548 143 487 143 q 690 181 625 143 q 793 301 755 220 q 832 499 832 381 m 626 1176 l 656 1119 q 675 1079 675 1090 q 645 1063 675 1063 q 562 1082 601 1063 q 468 1163 543 1092 q 394 1243 394 1234 q 428 1253 394 1253 l 520 1253 q 580 1238 560 1253 q 626 1176 601 1224 "},"&":{"x_min":83,"x_max":1019,"ha":1055,"o":"m 214 783 q 246 898 214 846 q 343 980 279 949 q 493 1011 407 1011 q 641 979 579 1011 q 735 895 704 947 q 766 788 766 844 q 715 656 766 712 q 568 541 665 599 q 631 466 602 501 q 687 400 660 431 q 736 348 714 370 q 768 419 747 367 q 808 494 789 471 q 861 518 827 518 q 917 495 893 518 q 942 440 942 472 q 920 355 942 410 q 859 234 899 301 q 939 169 884 213 q 1006 109 994 125 q 1019 66 1019 93 q 993 7 1019 31 q 937 -17 968 -17 q 875 3 905 -17 q 748 103 845 23 q 657 35 704 61 q 556 -4 610 8 q 435 -17 502 -17 q 283 7 350 -17 q 171 74 215 32 q 104 167 126 116 q 83 271 83 218 q 99 365 83 322 q 145 441 115 407 q 217 506 174 475 q 317 566 260 537 q 240 680 266 630 q 214 783 214 730 m 406 458 q 303 378 337 418 q 268 283 268 338 q 281 223 268 252 q 318 171 293 195 q 374 133 342 146 q 441 121 405 121 q 508 131 475 121 q 570 162 541 142 q 630 212 599 182 q 521 322 570 268 q 406 458 473 377 m 475 644 q 576 718 545 688 q 607 791 607 748 q 576 861 607 833 q 498 890 545 890 q 419 860 451 890 q 388 792 388 831 q 399 748 388 772 q 429 702 411 725 q 475 644 447 679 "},"˝":{"x_min":58,"x_max":580,"ha":462,"o":"m 212 1002 l 304 1002 q 339 991 339 1002 q 296 942 339 985 q 183 838 254 900 q 141 820 172 829 q 87 811 110 811 q 58 827 58 811 q 76 868 58 841 l 106 925 q 153 988 134 974 q 212 1002 173 1002 m 454 1002 l 545 1002 q 580 991 580 1002 q 535 940 580 985 q 425 838 490 895 q 383 820 415 829 q 328 811 351 811 q 299 827 299 811 q 301 839 299 833 q 307 852 304 846 q 317 868 311 857 l 348 925 q 380 974 366 958 q 411 996 395 991 q 454 1002 428 1002 "},"Ð":{"x_min":0,"x_max":960,"ha":1029,"o":"m 110 141 l 110 433 l 80 433 q 0 497 0 433 q 80 561 0 561 l 110 561 l 110 870 q 139 964 110 935 q 233 994 168 994 l 495 994 q 671 975 598 994 q 804 903 743 956 q 960 499 960 770 q 924 265 960 363 q 811 96 889 166 q 677 22 752 44 q 498 0 603 0 l 237 0 q 154 16 182 0 q 118 63 126 33 q 110 141 110 93 m 465 433 l 311 433 l 311 160 l 462 160 q 602 176 552 160 q 694 251 653 193 q 756 501 756 337 q 729 683 756 614 q 658 784 702 751 q 562 825 614 816 q 442 835 510 835 l 311 835 l 311 561 l 423 561 q 505 551 478 561 q 532 497 532 541 q 513 450 532 467 q 465 433 495 433 "},"I":{"x_min":117,"x_max":318,"ha":435,"o":"m 117 105 l 117 888 q 144 980 117 949 q 216 1011 172 1011 q 289 980 261 1011 q 318 888 318 950 l 318 105 q 289 13 318 44 q 216 -17 261 -17 q 145 13 173 -17 q 117 105 117 44 "},"ˉ":{"x_min":-16,"x_max":476,"ha":463,"o":"m 476 857 l -16 857 l -16 951 l 476 951 l 476 857 "},"G":{"x_min":68,"x_max":1017,"ha":1100,"o":"m 1017 404 l 1017 213 q 1009 152 1017 175 q 982 111 1002 130 q 930 76 962 93 q 757 5 840 27 q 575 -17 673 -17 q 366 18 460 -17 q 205 120 272 53 q 103 283 139 187 q 68 497 68 379 q 102 709 68 612 q 204 872 137 805 q 367 975 271 939 q 585 1011 463 1011 q 763 984 686 1011 q 889 916 840 957 q 961 830 937 876 q 986 750 986 785 q 958 685 986 712 q 890 659 930 659 q 849 669 869 659 q 816 697 829 679 q 752 785 778 755 q 683 835 727 815 q 571 856 639 856 q 446 831 501 856 q 352 762 391 807 q 292 649 313 716 q 272 502 272 583 q 352 233 272 327 q 576 139 432 139 q 708 157 646 139 q 833 209 769 175 l 833 371 l 677 371 q 591 387 620 371 q 563 445 563 404 q 587 500 563 478 q 652 522 611 522 l 880 522 q 951 514 922 522 q 999 481 981 507 q 1017 404 1017 455 "},"`":{"x_min":56,"x_max":337,"ha":463,"o":"m 288 925 l 318 868 q 337 827 337 838 q 307 811 337 811 q 224 830 263 811 q 130 911 205 840 q 56 991 56 982 q 90 1002 56 1002 l 182 1002 q 242 987 222 1002 q 288 925 263 973 "},"r":{"x_min":94,"x_max":602.484375,"ha":608,"o":"m 279 250 l 279 95 q 252 11 279 39 q 185 -17 226 -17 q 119 11 145 -17 q 94 95 94 39 l 94 611 q 184 736 94 736 q 251 706 230 736 q 271 620 271 677 q 341 706 306 677 q 434 736 375 736 q 547 706 492 736 q 602 629 602 677 q 579 573 602 595 q 528 551 555 551 q 479 564 518 551 q 410 577 440 577 q 344 555 369 577 q 304 491 318 534 q 284 391 289 449 q 279 250 279 333 "},"¿":{"x_min":58,"x_max":734.125,"ha":796,"o":"m 734 -6 q 711 -101 734 -52 q 644 -195 689 -151 q 534 -264 599 -238 q 386 -290 469 -290 q 214 -253 289 -290 q 98 -155 138 -217 q 58 -20 58 -93 q 71 58 58 21 q 110 125 85 95 q 155 174 135 156 q 251 261 175 192 q 307 325 295 301 q 329 401 319 348 q 410 470 343 470 q 470 447 446 470 q 494 379 494 424 q 483 300 494 334 q 454 239 472 266 q 414 190 435 211 q 350 132 392 168 q 268 50 292 81 q 243 -19 243 20 q 283 -109 243 -72 q 386 -147 323 -147 q 472 -127 439 -147 q 523 -76 504 -108 q 556 1 542 -43 q 589 58 570 38 q 645 78 608 78 q 709 51 683 78 q 734 -6 734 24 m 405 736 q 477 709 447 736 q 507 634 507 682 q 492 585 507 609 q 454 547 477 562 q 405 533 430 533 q 353 546 376 533 q 315 582 329 560 q 302 634 302 605 q 332 709 302 683 q 405 736 362 736 "},"ý":{"x_min":14,"x_max":715,"ha":754,"o":"m 266 -40 l 283 0 l 56 575 q 35 647 35 624 q 47 691 35 670 q 80 723 59 711 q 125 736 102 736 q 185 710 165 736 q 221 637 205 685 l 378 181 l 526 605 q 558 686 544 657 q 588 725 572 715 q 634 736 604 736 q 674 724 655 736 q 704 694 693 713 q 715 654 715 675 q 706 617 712 641 q 691 569 700 594 l 449 -62 q 388 -193 418 -146 q 309 -266 358 -241 q 176 -292 260 -292 q 54 -274 95 -292 q 14 -210 14 -256 q 33 -161 14 -178 q 90 -143 52 -143 q 119 -147 105 -143 q 150 -152 137 -152 q 200 -142 182 -152 q 233 -109 218 -133 q 266 -40 248 -86 m 401 1002 l 493 1002 q 528 991 528 1002 q 490 947 528 986 q 413 873 452 908 q 359 830 374 838 q 277 811 321 811 q 248 827 248 811 q 265 868 248 839 l 296 925 q 342 988 322 974 q 401 1002 361 1002 "},"x":{"x_min":37,"x_max":686,"ha":723,"o":"m 497 59 l 363 257 l 225 59 q 174 0 195 18 q 122 -17 154 -17 q 61 5 86 -17 q 37 55 37 27 q 75 139 37 84 l 243 379 l 94 579 q 56 665 56 628 q 79 714 56 693 q 139 736 102 736 q 193 717 171 736 q 243 660 214 699 l 363 495 l 479 660 q 530 718 508 700 q 583 736 551 736 q 643 715 619 736 q 668 665 668 694 q 658 625 668 644 q 628 579 648 605 l 479 379 l 646 139 q 686 54 686 82 q 661 4 686 25 q 601 -17 637 -17 q 547 1 569 -17 q 497 59 525 19 "},"è":{"x_min":61,"x_max":765,"ha":825,"o":"m 612 314 l 250 314 q 274 202 250 250 q 340 130 299 154 q 431 106 382 106 q 492 113 465 106 q 546 138 520 121 q 593 173 571 154 q 649 224 615 192 q 690 237 664 237 q 736 221 718 237 q 753 177 753 205 q 734 118 753 152 q 674 54 714 85 q 575 3 635 23 q 437 -17 515 -17 q 159 84 258 -17 q 61 360 61 186 q 85 512 61 442 q 156 633 109 583 q 271 710 203 683 q 423 737 340 737 q 610 691 532 737 q 726 572 687 645 q 765 425 765 500 q 724 334 765 355 q 612 314 684 314 m 250 419 l 583 419 q 538 560 583 513 q 419 608 493 608 q 304 560 349 608 q 250 419 259 512 m 441 924 l 471 867 q 490 827 490 838 q 460 811 490 811 q 377 830 416 811 q 284 911 358 840 q 210 991 210 982 q 244 1001 210 1001 l 335 1001 q 395 987 375 1001 q 441 924 416 973 "},"º":{"x_min":24,"x_max":513,"ha":535,"o":"m 513 779 q 483 659 513 711 q 398 578 453 607 q 268 549 343 549 q 90 613 156 549 q 24 779 24 677 q 53 901 24 848 q 139 983 83 953 q 268 1013 194 1013 q 397 983 341 1013 q 482 901 452 953 q 513 779 513 848 m 377 779 q 348 876 377 841 q 268 911 319 911 q 188 876 217 911 q 160 779 160 841 q 188 683 160 717 q 268 650 217 650 q 348 683 319 650 q 377 779 377 717 "},"Ø":{"x_min":62,"x_max":1037,"ha":1099,"o":"m 128 145 l 152 170 q 84 320 106 237 q 62 499 62 402 q 94 709 62 614 q 190 872 127 805 q 342 975 252 939 q 545 1011 431 1011 q 720 988 643 1011 q 859 916 796 965 l 877 935 q 942 996 920 980 q 988 1013 965 1013 q 1023 998 1009 1013 q 1037 959 1037 984 q 975 854 1037 918 l 947 825 q 1036 498 1036 694 q 1004 288 1036 383 q 911 125 973 194 q 757 19 848 56 q 549 -17 666 -17 q 238 77 356 -17 l 223 59 q 189 23 207 41 q 153 -6 171 4 q 112 -17 135 -17 q 76 -1 90 -17 q 62 33 62 14 q 77 85 62 60 q 128 145 93 110 m 295 320 l 731 783 q 650 832 699 814 q 548 851 601 851 q 399 809 463 851 q 300 689 335 768 q 266 499 266 609 q 295 320 266 399 m 802 671 l 367 212 q 548 143 443 143 q 690 181 625 143 q 793 301 755 220 q 832 499 832 381 q 802 671 832 593 "},"÷":{"x_min":57,"x_max":753,"ha":810,"o":"m 753 580 l 753 402 l 57 402 l 57 580 l 753 580 m 405 666 q 359 679 381 666 q 323 716 337 693 q 310 761 310 739 q 338 832 310 807 q 405 858 366 858 q 472 832 443 858 q 501 761 501 806 q 472 694 501 723 q 405 666 444 666 m 405 125 q 359 139 381 125 q 323 176 337 154 q 310 221 310 198 q 338 291 310 266 q 405 317 366 317 q 472 291 443 317 q 501 221 501 265 q 472 153 501 182 q 405 125 444 125 "},"h":{"x_min":92,"x_max":752,"ha":839,"o":"m 277 898 l 277 624 q 345 688 312 664 q 420 724 379 712 q 507 736 461 736 q 633 706 578 736 q 718 619 687 676 q 745 545 738 586 q 752 450 752 504 l 752 95 q 726 11 752 39 q 659 -17 701 -17 q 568 95 568 -17 l 568 408 q 541 545 568 497 q 440 593 514 593 q 351 564 391 593 q 291 487 311 536 q 277 340 277 446 l 277 95 q 252 11 277 40 q 183 -17 227 -17 q 92 95 92 -17 l 92 898 q 116 982 92 954 q 183 1011 140 1011 q 252 982 227 1011 q 277 898 277 954 "},".":{"x_min":115,"x_max":319,"ha":434,"o":"m 218 -17 q 145 10 176 -17 q 115 86 115 37 q 144 157 115 127 q 216 187 173 187 q 288 157 258 187 q 319 86 319 128 q 288 10 319 37 q 218 -17 258 -17 "},";":{"x_min":98.125,"x_max":321,"ha":435,"o":"m 208 -19 q 130 8 163 -19 q 98 85 98 36 q 130 157 98 128 q 205 187 162 187 q 264 169 238 187 q 306 117 291 151 q 321 32 321 83 q 292 -93 321 -34 q 222 -186 263 -151 q 148 -220 181 -220 q 113 -206 126 -220 q 101 -174 101 -192 q 128 -129 101 -146 q 208 -19 208 -86 m 115 634 q 145 709 115 683 q 218 736 175 736 q 289 709 259 736 q 319 634 319 682 q 287 564 319 596 q 218 533 255 533 q 166 546 189 533 q 128 582 142 560 q 115 634 115 605 "},"f":{"x_min":-12,"x_max":528,"ha":463,"o":"m 80 720 l 125 720 l 125 775 q 147 912 125 861 q 221 987 169 964 q 365 1011 274 1011 q 528 931 528 1011 q 510 887 528 905 q 470 868 493 868 q 433 872 459 868 q 388 877 406 877 q 324 847 338 877 q 310 763 310 818 l 310 720 l 355 720 q 461 656 461 720 q 432 598 461 610 q 355 586 404 586 l 310 586 l 310 95 q 283 11 310 40 q 216 -17 257 -17 q 151 11 177 -17 q 125 95 125 40 l 125 586 l 74 586 q 10 604 32 586 q -12 653 -12 623 q 80 720 -12 720 "},"“":{"x_min":62,"x_max":583,"ha":636,"o":"m 176 808 l 184 808 q 253 778 222 808 q 284 704 284 748 q 253 633 284 661 q 177 605 222 605 q 94 644 127 605 q 62 757 62 684 q 90 883 62 824 q 161 976 119 942 q 235 1011 203 1011 q 269 998 257 1011 q 282 964 282 985 q 255 920 282 934 q 197 874 218 901 q 176 808 176 848 m 474 808 l 483 808 q 552 778 521 808 q 583 704 583 749 q 552 633 583 662 q 476 604 521 604 q 393 644 425 604 q 361 757 361 685 q 377 856 361 810 q 421 936 394 902 q 478 990 448 970 q 534 1011 509 1011 q 568 998 556 1011 q 580 964 580 985 q 553 920 580 934 q 497 874 516 899 q 474 808 478 848 "},"A":{"x_min":37,"x_max":959,"ha":998,"o":"m 744 112 l 696 238 l 292 238 l 245 110 q 197 9 217 35 q 133 -17 178 -17 q 66 10 95 -17 q 37 73 37 38 q 43 115 37 94 q 66 176 50 137 l 320 821 q 346 888 331 849 q 379 953 361 927 q 424 995 396 979 q 493 1011 452 1011 q 564 995 535 1011 q 609 954 592 979 q 638 900 626 929 q 668 823 650 871 l 928 182 q 959 75 959 108 q 930 11 959 40 q 860 -17 901 -17 q 820 -8 836 -17 q 791 14 803 0 q 766 59 780 29 q 744 112 753 89 m 345 389 l 642 389 l 492 798 l 345 389 "},"6":{"x_min":64,"x_max":774,"ha":826,"o":"m 256 538 q 352 619 298 593 q 473 646 406 646 q 592 621 538 646 q 688 553 647 597 q 751 448 729 508 q 774 322 774 388 q 730 148 774 226 q 608 26 686 70 q 430 -17 529 -17 q 234 38 316 -17 q 107 203 151 94 q 64 469 64 312 q 90 699 64 597 q 166 866 116 800 q 286 967 215 933 q 446 1001 356 1001 q 599 967 533 1001 q 699 882 665 933 q 733 786 733 832 q 712 735 733 758 q 658 713 691 713 q 605 730 630 713 q 569 780 581 748 q 519 846 554 821 q 439 871 485 871 q 367 850 403 871 q 306 794 331 829 q 256 538 256 722 m 435 117 q 548 172 503 117 q 593 319 593 228 q 571 425 593 381 q 514 493 550 470 q 433 517 477 517 q 353 494 391 517 q 291 429 315 472 q 268 330 268 387 q 315 178 268 239 q 435 117 363 117 "},"‘":{"x_min":111,"x_max":333.5,"ha":435,"o":"m 225 808 l 233 808 q 302 778 271 808 q 333 704 333 748 q 302 633 333 661 q 226 605 271 605 q 143 644 176 605 q 111 757 111 684 q 139 883 111 824 q 210 976 168 942 q 284 1011 252 1011 q 317 997 304 1011 q 330 964 330 984 q 304 920 330 934 q 246 874 267 901 q 225 808 225 848 "},"π":{"x_min":13.828125,"x_max":735.09375,"ha":762,"o":"m 465 557 l 308 557 q 286 333 297 420 q 265 183 275 246 q 244 69 255 121 q 218 6 235 29 q 168 -24 201 -15 q 114 -13 141 -31 q 82 28 87 3 q 80 59 78 46 q 87 82 82 71 q 99 102 93 93 q 114 119 106 110 q 137 147 116 122 q 169 193 158 172 q 183 239 180 214 l 224 557 l 158 557 q 105 543 130 557 q 66 512 80 530 l 37 469 l 13 469 q 37 532 23 495 q 76 604 51 569 q 129 654 96 633 q 207 676 163 676 l 725 676 l 725 557 l 549 557 q 533 230 533 395 q 543 172 533 201 q 568 129 553 144 q 614 106 587 111 q 670 123 642 101 q 693 151 686 136 q 702 181 700 167 q 706 210 704 195 l 735 210 q 718 108 735 153 q 680 36 702 63 q 636 -3 657 8 q 579 -21 611 -18 q 519 -6 546 -24 q 451 96 474 26 q 437 203 437 136 q 441 333 437 270 l 465 557 "},"O":{"x_min":62,"x_max":1036,"ha":1100,"o":"m 545 1011 q 811 948 700 1011 q 979 769 922 885 q 1036 498 1036 654 q 1004 288 1036 383 q 911 125 973 194 q 757 19 848 56 q 549 -17 667 -17 q 340 20 433 -17 q 186 126 248 58 q 93 291 125 195 q 62 499 62 387 q 94 709 62 614 q 190 872 127 805 q 342 975 252 939 q 545 1011 431 1011 m 832 499 q 796 688 832 608 q 695 809 761 768 q 545 851 630 851 q 433 828 485 851 q 345 762 382 805 q 287 651 308 718 q 266 499 266 583 q 287 346 266 414 q 347 232 308 277 q 437 165 386 187 q 548 143 487 143 q 690 181 625 143 q 793 301 755 220 q 832 499 832 381 "},"n":{"x_min":90,"x_max":750,"ha":839,"o":"m 263 633 l 263 611 q 370 705 312 675 q 503 736 428 736 q 634 704 577 736 q 720 614 692 672 q 744 540 739 580 q 750 440 750 501 l 750 95 q 724 11 750 39 q 658 -17 699 -17 q 591 12 617 -17 q 566 95 566 41 l 566 404 q 540 544 566 495 q 438 593 515 593 q 348 563 389 593 q 288 482 307 533 q 275 327 275 441 l 275 95 q 248 11 275 39 q 181 -17 222 -17 q 115 12 141 -17 q 90 95 90 41 l 90 630 q 113 709 90 683 q 176 736 136 736 q 220 724 200 736 q 251 689 239 712 q 263 633 263 666 "},"3":{"x_min":67.5625,"x_max":762,"ha":825,"o":"m 380 600 q 487 636 442 600 q 533 741 533 673 q 497 831 533 793 q 400 869 461 869 q 332 857 358 869 q 289 827 305 846 q 260 778 274 808 q 234 722 246 748 q 210 700 228 708 q 169 692 192 692 q 119 714 142 692 q 96 772 96 736 q 118 846 96 807 q 180 921 139 885 q 282 977 221 956 q 419 999 343 999 q 539 981 484 999 q 633 929 593 963 q 693 850 673 895 q 714 754 714 805 q 684 637 714 686 q 599 542 654 589 q 689 477 652 514 q 743 396 725 441 q 762 300 762 352 q 737 181 762 239 q 664 78 712 123 q 550 8 616 33 q 403 -17 483 -17 q 258 12 322 -17 q 152 84 193 41 q 88 175 110 128 q 67 252 67 222 q 93 315 67 291 q 156 340 118 340 q 193 328 175 340 q 216 302 211 317 q 292 162 251 208 q 405 117 332 117 q 486 137 447 117 q 550 198 525 158 q 576 292 576 239 q 532 417 576 372 q 412 462 489 462 q 370 459 398 462 q 333 456 342 456 q 276 475 296 456 q 256 527 256 493 q 280 579 256 559 q 352 600 304 600 l 380 600 "},"9":{"x_min":45,"x_max":754,"ha":825,"o":"m 561 445 q 465 365 520 392 q 343 339 410 339 q 224 363 279 339 q 128 432 169 388 q 66 536 88 477 q 45 661 45 595 q 69 793 45 730 q 139 902 93 856 q 247 974 184 948 q 385 1000 310 1000 q 541 968 473 1000 q 657 875 610 936 q 728 722 703 814 q 754 513 754 630 q 727 284 754 383 q 650 117 701 184 q 529 16 600 49 q 369 -16 459 -16 q 216 17 281 -16 q 117 100 151 51 q 84 196 84 150 q 104 247 84 225 q 158 270 125 270 q 211 253 187 270 q 247 203 235 236 q 297 138 262 163 q 376 114 332 114 q 451 133 416 114 q 511 189 486 153 q 561 445 561 261 m 550 652 q 537 737 550 698 q 502 805 525 776 q 447 849 479 833 q 379 866 416 866 q 269 810 314 866 q 225 664 225 755 q 269 521 225 574 q 383 468 314 468 q 463 489 425 468 q 526 553 501 511 q 550 652 550 595 "},"l":{"x_min":96,"x_max":281,"ha":377,"o":"m 96 95 l 96 898 q 120 982 96 954 q 187 1011 145 1011 q 255 982 229 1011 q 281 898 281 954 l 281 95 q 254 11 281 39 q 187 -17 228 -17 q 121 12 146 -17 q 96 95 96 41 "},"¤":{"x_min":65,"x_max":701,"ha":766,"o":"m 118 636 q 77 683 89 666 q 65 729 65 701 q 86 789 65 767 q 145 812 107 812 q 190 797 169 812 q 236 756 211 783 q 382 794 308 794 q 466 783 431 794 q 530 756 501 773 q 577 799 560 786 q 620 812 595 812 q 679 788 658 812 q 701 729 701 765 q 688 682 701 702 q 648 636 675 662 q 684 494 684 569 q 675 422 684 455 q 648 353 666 388 q 688 307 675 327 q 701 260 701 288 q 679 201 701 224 q 620 178 657 178 q 580 189 596 178 q 530 232 563 201 q 382 197 462 197 q 306 205 336 197 q 236 232 275 213 q 189 191 209 205 q 145 178 169 178 q 86 200 107 178 q 65 260 65 223 q 78 307 65 287 q 118 353 91 327 q 83 494 83 427 q 118 636 83 568 m 247 494 q 265 425 247 457 q 314 374 283 393 q 382 356 345 356 q 451 374 420 356 q 502 425 483 393 q 521 494 521 456 q 502 563 521 532 q 451 613 483 595 q 382 631 419 631 q 314 612 345 631 q 265 562 283 594 q 247 494 247 530 "},"4":{"x_min":17,"x_max":800,"ha":825,"o":"m 486 85 l 486 212 l 145 212 q 49 241 81 212 q 17 320 17 270 q 21 346 17 333 q 35 374 26 359 q 55 402 45 389 q 80 435 65 416 l 440 916 q 498 985 475 964 q 552 1007 521 1007 q 656 888 656 1007 l 656 364 l 685 364 q 768 349 737 364 q 800 287 800 335 q 774 229 800 247 q 697 212 748 212 l 656 212 l 656 85 q 632 8 656 33 q 570 -17 609 -17 q 509 9 532 -17 q 486 85 486 35 m 194 364 l 486 364 l 486 758 l 194 364 "},"p":{"x_min":92,"x_max":815.8125,"ha":869,"o":"m 267 631 l 267 609 q 375 703 319 673 q 503 734 431 734 q 660 689 588 734 q 774 561 732 645 q 815 360 815 476 q 791 203 815 275 q 725 83 767 132 q 626 9 683 35 q 503 -17 568 -17 q 369 14 423 -17 q 267 108 315 46 l 267 -169 q 178 -292 267 -292 q 108 -260 125 -292 q 92 -168 92 -228 l 92 630 q 115 709 92 683 q 178 736 138 736 q 242 708 217 736 q 267 631 267 681 m 630 362 q 607 488 630 435 q 545 568 585 540 q 457 597 505 597 q 328 536 380 597 q 275 359 275 476 q 328 187 275 248 q 457 126 380 126 q 543 152 503 126 q 606 233 582 179 q 630 362 630 286 "},"‡":{"x_min":52,"x_max":776,"ha":826,"o":"m 329 -164 l 329 -8 l 140 -8 q 74 11 96 -8 q 52 63 52 31 q 74 116 52 96 q 140 136 96 136 l 329 136 l 329 598 l 140 598 q 74 618 97 598 q 52 670 52 638 q 74 722 52 702 q 140 743 96 743 l 329 743 l 329 899 q 352 977 329 951 q 413 1003 375 1003 q 474 976 452 1003 q 497 899 497 950 l 497 743 l 686 743 q 753 723 731 743 q 776 670 776 703 q 753 617 776 637 q 686 598 731 598 l 497 598 l 497 136 l 686 136 q 753 116 731 136 q 776 63 776 96 q 753 11 776 31 q 686 -8 731 -8 l 497 -8 l 497 -164 q 473 -241 497 -215 q 413 -267 450 -267 q 352 -241 376 -267 q 329 -164 329 -215 "},"à":{"x_min":56,"x_max":767,"ha":826,"o":"m 564 87 q 434 9 497 35 q 293 -17 371 -17 q 168 11 222 -17 q 85 87 114 39 q 56 191 56 135 q 104 321 56 267 q 236 393 152 374 q 323 411 254 397 q 443 437 393 425 q 549 466 492 449 q 523 573 549 539 q 414 608 497 608 q 308 588 343 608 q 246 529 272 568 q 211 477 221 490 q 165 465 200 465 q 112 485 134 465 q 89 536 89 505 q 124 631 89 585 q 231 707 158 677 q 413 737 304 737 q 605 708 535 737 q 704 616 675 679 q 733 451 733 554 q 733 340 733 386 q 733 239 733 295 q 750 130 733 187 q 767 58 767 74 q 740 6 767 29 q 679 -17 713 -17 q 623 9 651 -17 q 564 87 595 36 m 552 355 q 433 323 511 340 q 326 299 355 306 q 268 268 296 291 q 241 205 241 245 q 273 133 241 163 q 357 104 305 104 q 458 128 412 104 q 526 190 505 152 q 552 328 552 232 l 552 355 m 442 924 l 472 867 q 491 827 491 838 q 461 811 491 811 q 378 830 417 811 q 284 911 359 840 q 210 991 210 982 q 244 1001 210 1001 l 336 1001 q 396 987 376 1001 q 442 924 416 973 "},"Ü":{"x_min":110,"x_max":946,"ha":1055,"o":"m 110 410 l 110 888 q 137 980 110 949 q 209 1011 164 1011 q 283 980 256 1011 q 311 888 311 949 l 311 400 q 329 260 311 316 q 395 173 348 204 q 529 143 443 143 q 696 205 647 143 q 745 395 745 268 l 745 888 q 772 980 745 950 q 844 1011 799 1011 q 917 980 889 1011 q 946 888 946 950 l 946 410 q 923 216 946 294 q 837 79 900 138 q 711 6 783 29 q 543 -17 639 -17 q 345 7 428 -17 q 211 84 263 32 q 134 217 158 136 q 110 410 110 298 m 369 1078 q 316 1098 339 1078 q 293 1154 293 1118 q 315 1209 293 1188 q 369 1231 337 1231 q 422 1211 399 1231 q 446 1154 446 1192 q 422 1098 446 1118 q 369 1078 399 1078 m 633 1231 q 671 1220 652 1231 q 699 1192 689 1210 q 710 1154 710 1173 q 687 1098 710 1118 q 633 1078 665 1078 q 580 1098 603 1078 q 557 1154 557 1118 q 580 1207 557 1184 q 633 1231 603 1231 "},"ó":{"x_min":52,"x_max":789,"ha":839,"o":"m 789 359 q 763 206 789 276 q 688 86 737 137 q 572 9 639 36 q 419 -17 504 -17 q 268 10 335 -17 q 152 87 201 37 q 77 207 102 138 q 52 359 52 276 q 77 513 52 443 q 151 632 103 583 q 268 709 199 682 q 419 736 336 736 q 572 708 503 736 q 689 631 640 681 q 763 512 738 581 q 789 359 789 442 m 603 359 q 553 535 603 472 q 419 598 503 598 q 323 570 365 598 q 260 487 282 542 q 237 359 237 432 q 259 232 237 287 q 322 149 281 178 q 419 121 363 121 q 553 184 503 121 q 603 359 603 247 m 440 1001 l 532 1001 q 567 991 567 1001 q 529 947 567 986 q 452 873 491 908 q 398 830 413 838 q 316 811 360 811 q 287 827 287 811 q 304 868 287 839 l 335 925 q 381 988 361 974 q 440 1001 400 1001 "}}}
